<?xml version="1.0" encoding="UTF-8" standalone="no"?>
<svg
   xmlns:dc="http://purl.org/dc/elements/1.1/"
   xmlns:cc="http://creativecommons.org/ns#"
   xmlns:rdf="http://www.w3.org/1999/02/22-rdf-syntax-ns#"
   xmlns:svg="http://www.w3.org/2000/svg"
   xmlns="http://www.w3.org/2000/svg"
   xmlns:sodipodi="http://sodipodi.sourceforge.net/DTD/sodipodi-0.dtd"
   xmlns:inkscape="http://www.inkscape.org/namespaces/inkscape"
   version="1.1"
   id="svg2"
   xml:space="preserve"
   width="4000"
   height="2666.6667"
   viewBox="0 0 4000 2666.6667"
   sodipodi:docname="Mar-Business_18.eps"><metadata
     id="metadata8"><rdf:RDF><cc:Work
         rdf:about=""><dc:format>image/svg+xml</dc:format><dc:type
           rdf:resource="http://purl.org/dc/dcmitype/StillImage" /></cc:Work></rdf:RDF></metadata><defs
     id="defs6" /><sodipodi:namedview
     pagecolor="#ffffff"
     bordercolor="#666666"
     borderopacity="1"
     objecttolerance="10"
     gridtolerance="10"
     guidetolerance="10"
     inkscape:pageopacity="0"
     inkscape:pageshadow="2"
     inkscape:window-width="640"
     inkscape:window-height="480"
     id="namedview4" /><g
     id="g10"
     inkscape:groupmode="layer"
     inkscape:label="ink_ext_XXXXXX"
     transform="matrix(1.3333333,0,0,-1.3333333,0,2666.6667)"><g
       id="g12"
       transform="scale(0.1)"><path
         d="M 0,0 H 30000 V 20000 H 0 Z"
         style="fill:#ffffff;fill-opacity:1;fill-rule:nonzero;stroke:none"
         id="path14" /><path
         d="m 14233.2,15320.9 -32.5,38.7 c 8.9,7.6 910.3,757.9 2212.8,1138.4 1203.5,351.7 3005.6,451.2 4755.5,-1071.2 l -33.1,-38.2 c -1732.1,1506.9 -3515.4,1408.9 -4706.5,1061.4 -1292.8,-377.3 -2187.3,-1121.6 -2196.2,-1129.1"
         style="fill:#dadada;fill-opacity:1;fill-rule:nonzero;stroke:none"
         id="path16" /><path
         d="m 28133.7,5597.8 c -188,2003 -964.3,3523.3 -2975.9,4638.4 -593.3,328.8 -1336,489.5 -1691.7,1067.1 -353.1,573.4 -222,1305.7 -291.9,1975.5 -179.6,1718.5 -1821.8,3047.4 -3540.1,3229.2 -1718.2,181.9 -3427.6,-596.3 -4732.7,-1728.6 -979.4,-849.5 -1837.2,-1934 -3071.1,-2331.8 -1067,-344.1 -2183.27,-105.3 -3304.85,133.5 -1017.26,216.6 -2038.86,433.2 -3031.98,215 C 4369.83,12549.1 3427.26,11762.4 2738.88,10840.7 1587,9298.2 1299.86,7347.9 1652.15,5455.3 1844.87,4420 2316.31,3370.7 2992.06,2564.8 l 24211.04,50.6 c 707.9,707.9 1011.2,2123.6 930.6,2982.4"
         style="fill:#f6f5f5;fill-opacity:1;fill-rule:nonzero;stroke:none"
         id="path18" /><path
         d="m 12657.7,15188.5 c 0,-1033.2 -837.6,-1870.7 -1870.7,-1870.7 -1033.17,0 -1870.7,837.5 -1870.7,1870.7 0,1033.1 837.53,1870.7 1870.7,1870.7 1033.1,0 1870.7,-837.6 1870.7,-1870.7"
         style="fill:#f6f5f5;fill-opacity:1;fill-rule:nonzero;stroke:none"
         id="path20" /><path
         d="m 14680.4,16857.2 c 0,-428.2 -347.1,-775.3 -775.3,-775.3 -428.1,0 -775.3,347.1 -775.3,775.3 0,428.2 347.2,775.3 775.3,775.3 428.2,0 775.3,-347.1 775.3,-775.3"
         style="fill:#f6f5f5;fill-opacity:1;fill-rule:nonzero;stroke:none"
         id="path22" /><path
         d="m 26545.8,11447 c 0,-428.2 -347.1,-775.3 -775.3,-775.3 -428.2,0 -775.3,347.1 -775.3,775.3 0,428.2 347.1,775.3 775.3,775.3 428.2,0 775.3,-347.1 775.3,-775.3"
         style="fill:#f6f5f5;fill-opacity:1;fill-rule:nonzero;stroke:none"
         id="path24" /><path
         d="m 28017.5,2586.7 -44.6,23.7 c 909.4,1714.2 1005.7,3556.9 264.2,5055.6 -779.6,1575.6 -2370.9,2635.7 -4480.6,2985 l 8.3,49.8 C 25891,10348.9 27495.3,9279 28282.4,7688.4 29031.3,6175 28934.7,4315.5 28017.5,2586.7"
         style="fill:#dadada;fill-opacity:1;fill-rule:nonzero;stroke:none"
         id="path26" /><path
         d="M 3133.65,2514 C 2038.16,3693.7 1315.32,5114.5 1043.28,6622.7 c -253.307,1404.4 -89.62,2797.9 460.91,3923.8 850.52,1739.4 2496.52,2635.7 4515.4,2459.4 l -4.4,-50.4 C 4017.93,13130 2390.42,12243.9 1549.62,10524.3 1003.77,9408 841.621,8025.6 1093.05,6631.7 1363.36,5133 2081.81,3721 3170.68,2548.3 l -37.03,-34.3"
         style="fill:#dadada;fill-opacity:1;fill-rule:nonzero;stroke:none"
         id="path28" /><path
         d="M 3792.63,2568.4 H 10298.3 V 6230.5 H 3792.63 Z"
         style="fill:#ff9064;fill-opacity:1;fill-rule:nonzero;stroke:none"
         id="path30" /><path
         d="M 6123.68,2568.4 H 3792.63 V 6230.5 H 6123.68 V 2568.4"
         style="fill:#d8744c;fill-opacity:1;fill-rule:nonzero;stroke:none"
         id="path32" /><path
         d="m 7357.29,5338.4 h 606.75 v 892.102 h -606.75 z"
         style="fill:#ffb293;fill-opacity:1;fill-rule:nonzero;stroke:none"
         id="path34" /><path
         d="m 9013.34,2568.4 h 10746.5 v 7651.8 H 9013.34 Z"
         style="fill:#102048;fill-opacity:1;fill-rule:nonzero;stroke:none"
         id="path36" /><path
         d="m 20806.3,12925.4 h -1988.2 v 1814.7 c 0,366.1 296.8,662.9 662.9,662.9 183,0 348.9,-74.3 468.7,-194.2 118.3,-118.3 192.7,-282.1 194.2,-462.6 v -6.1 l -0.5,-1151.8 c 0,-5.6 0,-11.6 0.5,-17.2 v -34.9 l 2,1 c 25.8,-342.3 311.5,-611.8 660.4,-611.8"
         style="fill:#86a7ff;fill-opacity:1;fill-rule:nonzero;stroke:none"
         id="path38" /><path
         d="m 21468.6,13988.8 v -401 c 0,-183 -73.8,-348.9 -194.1,-468.2 -119.4,-120.3 -285.2,-194.2 -468.2,-194.2 -348.9,0 -634.6,269.5 -660.4,611.8 l 1322.7,451.6"
         style="fill:#d3dfff;fill-opacity:1;fill-rule:nonzero;stroke:none"
         id="path40" /><path
         d="m 19481,15403 c -14.2,0 -27.8,-0.5 -41.5,-1.5 -9.1,-0.5 -17.7,-1 -26.2,-2.1 -9.7,-1 -18.8,-2 -28.4,-3.5 -5.5,-0.5 -11.1,-1.5 -16.6,-2.5 -7.1,-1 -14.2,-2.5 -20.8,-4 -10.1,-2.1 -19.7,-4.1 -29.8,-6.6 -14.2,-3.6 -28.3,-7.6 -42.5,-12.7 -7.1,-2 -14.1,-4.5 -20.7,-7 -6.6,-2.1 -13.7,-5.1 -20.2,-7.6 -9.6,-3.6 -18.8,-7.6 -27.9,-12.2 -8,-3.5 -16.1,-7 -24.2,-11.6 -2,-1 -4.6,-2 -7.1,-3.5 -7.1,-3.6 -14.2,-7.6 -21.2,-11.7 -27.8,-15.6 -54.6,-33.3 -79.4,-53.1 -7.1,-5.5 -14.7,-11.6 -21.2,-17.1 -8.1,-6.6 -15.2,-13.2 -22.8,-20.3 -7.6,-7.1 -14.7,-14.1 -21.8,-21.2 -19.7,-20.2 -38.4,-41.5 -55.6,-64.2 -7.6,-10.1 -14.6,-19.7 -21.7,-29.9 -22.3,-33.8 -41.5,-69.2 -58.2,-106.6 -4,-9.1 -7.5,-18.7 -11.6,-28.3 -10.6,-28.9 -19.7,-58.7 -26.8,-89 -2,-10.7 -4,-20.8 -6,-30.9 -3.6,-20.7 -6.6,-42 -8.1,-63.2 V 5494.3 H 9958.57 v 8875.2 c 0,570.9 462.63,1033.5 1033.53,1033.5 H 19481"
         style="fill:#d3dfff;fill-opacity:1;fill-rule:nonzero;stroke:none"
         id="path42" /><path
         d="m 17731,14101.5 h -6724.8 v 353.9 H 17731 v -353.9"
         style="fill:#adc3ff;fill-opacity:1;fill-rule:nonzero;stroke:none"
         id="path44" /><path
         d="m 17210,13065 h -6203.8 v 353.9 H 17210 V 13065"
         style="fill:#adc3ff;fill-opacity:1;fill-rule:nonzero;stroke:none"
         id="path46" /><path
         d="m 16882.9,12028.4 h -5876.7 v 354 h 5876.7 v -354"
         style="fill:#adc3ff;fill-opacity:1;fill-rule:nonzero;stroke:none"
         id="path48" /><path
         d="m 17731,10991.9 h -6724.8 v 354 H 17731 v -354"
         style="fill:#adc3ff;fill-opacity:1;fill-rule:nonzero;stroke:none"
         id="path50" /><path
         d="m 17250.7,9942.7 h -3645.8 v 354 h 3645.8 v -354"
         style="fill:#adc3ff;fill-opacity:1;fill-rule:nonzero;stroke:none"
         id="path52" /><path
         d="m 14338.7,8309.3 c -40.3,0 -77.3,13.7 -102.7,48.7 -31.2,43.2 -29,102.3 -27.6,141.4 l 34.4,914.7 50.5,-1.9 -34.3,-914.6 c -1.6,-42.6 -1.4,-83.1 17.9,-109.9 43,-59.3 146.4,-8 166.7,2.9 101.8,54.6 174.9,157.4 245.6,256.8 78.6,110.4 159.9,224.7 282.8,278.4 73,31.9 126.6,-14.9 169.7,-52.3 24.5,-21.2 47.6,-41.2 72.1,-48.5 64.3,-18.9 128.3,-2.3 196,15.4 59.8,15.6 121.9,32 185.6,22.1 58.2,-8.9 105.2,-32.1 150.8,-54.6 67.1,-33.1 125.3,-61.8 209.2,-41.4 115.8,27.9 223.4,93.8 327.4,157.5 30.2,18.5 60.3,37 90.6,54.6 117,67.9 292.7,153.6 467.6,113.5 l -11.3,-49.3 c -157.7,36.1 -321.4,-44.2 -430.9,-107.9 -29.9,-17.5 -59.7,-35.7 -89.5,-54 -107.4,-65.8 -218.5,-133.8 -342,-163.6 -101.9,-24.5 -174,10.9 -243.6,45.3 -42,20.8 -85.4,42.2 -135.9,49.9 -53.5,8.1 -107.7,-6 -165.2,-21 -71.5,-18.7 -145.1,-38 -223.2,-14.9 -34.9,10.3 -63.3,34.9 -90.8,58.7 -45.1,39.1 -74.8,62.1 -116.4,44.2 -110,-48.1 -183.8,-151.7 -261.8,-261.5 -74.1,-104 -150.7,-211.7 -262.9,-271.9 -39.9,-21.5 -86.2,-36.8 -128.8,-36.8"
         style="fill:#102048;fill-opacity:1;fill-rule:nonzero;stroke:none"
         id="path54" /><path
         d="M 11130.9,5494.3 H 9958.57 v 4789.2 L 12726.9,7980.4 c 124.9,-104.3 281.7,-155.7 442.7,-155.7 35.7,0 71.6,2.5 107.4,7.6 47.7,6.7 96.5,10 145.4,10 9.7,0 19.4,-0.2 29,-0.4 l 1887,-53.1 c 65.2,-2 130,-10.1 193.2,-23.8 51.1,-11.1 102.8,-16.6 154.3,-16.6 145.4,0 288.3,44.3 407.4,132.4 l 2727.4,2019 v -416.9 l -3036.8,-2384 c -144.4,71.4 -304.5,109.4 -468.1,109.4 H 13428 c -262.4,0 -515.3,-97.7 -709.6,-273.9 L 11130.9,5494.3"
         style="fill:#bcceff;fill-opacity:1;fill-rule:nonzero;stroke:none"
         id="path56" /><path
         d="m 13054,7048 -73.8,-81.9 L 9645.08,3268 9013.55,2568.2 v 7652.1 L 13054,7048"
         style="fill:#7d69ed;fill-opacity:1;fill-rule:nonzero;stroke:none"
         id="path58" /><path
         d="M 19759.8,10220.2 15719.2,7048 19759.8,2568.4 v 7651.8"
         style="fill:#7d69ed;fill-opacity:1;fill-rule:nonzero;stroke:none"
         id="path60" /><path
         d="M 12980.2,6966.1 9645.08,3268 9013.55,3128.9 v 1359.7 c 1667.05,1194.8 3537.35,2580.2 3964.65,2610 l 2,-132.5"
         style="fill:#5b4dad;fill-opacity:1;fill-rule:nonzero;stroke:none"
         id="path62" /><path
         d="m 15793.2,6966.1 3335.1,-3698.1 631.5,-139.1 v 1359.7 c -1667,1194.8 -3537.3,2580.2 -3964.5,2610 l -2.1,-132.5"
         style="fill:#5b4dad;fill-opacity:1;fill-rule:nonzero;stroke:none"
         id="path64" /><path
         d="M 19759.8,2568.4 H 9013.34 l 1.98,1006.6 3703.08,3359.4 c 194.3,176.2 447.2,273.9 709.6,273.9 h 1887.8 c 258.4,0 507.9,-94.8 701.2,-266.3 l 3753.4,-3332.2 -10.6,-1041.4"
         style="fill:#7d69ed;fill-opacity:1;fill-rule:nonzero;stroke:none"
         id="path66" /><path
         d="m 19761.3,2712.3 9.1,897.5 -10.6,9.3 v 2497.1 c 664.7,-279.2 1131.4,-936.2 1131.4,-1702.3 0,-765.5 -466,-1422.1 -1129.9,-1701.6"
         style="fill:#b8b2d8;fill-opacity:1;fill-rule:nonzero;stroke:none"
         id="path68" /><path
         d="m 19759.8,4488.6 c -629.2,450.9 -1287.3,929.1 -1885.9,1351.2 318.7,262.2 726.8,419.7 1171.8,419.7 253.2,0 494.5,-51 714.1,-143.3 V 4488.6"
         style="fill:#6f5ed3;fill-opacity:1;fill-rule:nonzero;stroke:none"
         id="path70" /><path
         d="m 19759.8,3619.1 -2171.2,1927.6 c 84,108 179.7,206.2 285.3,293.1 598.6,-422.1 1256.7,-900.3 1885.9,-1351.2 v 0 -869.5"
         style="fill:#5b4dad;fill-opacity:1;fill-rule:nonzero;stroke:none"
         id="path72" /><path
         d="m 19045.7,2568.4 v 0 c -1019.3,0 -1845.6,826.3 -1845.6,1845.5 0,427 145.1,820.1 388.5,1132.8 l 2171.2,-1927.6 10.6,-9.3 -9.1,-897.5 c -220.1,-92.7 -461.9,-143.9 -715.6,-143.9"
         style="fill:#6f5ed3;fill-opacity:1;fill-rule:nonzero;stroke:none"
         id="path74" /><path
         d="m 21447.4,4413.9 c 0,-1019.2 -826.3,-1845.5 -1845.6,-1845.5 -1019.2,0 -1845.5,826.3 -1845.5,1845.5 0,1019.3 826.3,1845.6 1845.5,1845.6 1019.3,0 1845.6,-826.3 1845.6,-1845.6"
         style="fill:#eb5d60;fill-opacity:1;fill-rule:nonzero;stroke:none"
         id="path76" /><path
         d="m 19562.3,3413.9 c -87.6,0 -171.5,36.7 -231.6,103 l -652.8,720.9 c -56.3,62.1 -51.6,158 10.6,214.3 62.1,56.2 158,51.5 214.2,-10.6 l 652.9,-721 c 1.3,-1.4 3.7,-3.8 8.8,-3 5.2,0.8 6.5,3.9 7.3,5.7 l 702.8,1600 c 33.7,76.7 123,111.5 199.9,77.9 76.7,-33.7 111.6,-123.2 77.9,-199.9 l -702.8,-1600 c -42.9,-97.6 -131.3,-166.1 -236.4,-183.1 -17,-2.8 -34,-4.2 -50.8,-4.2"
         style="fill:#ffffff;fill-opacity:1;fill-rule:nonzero;stroke:none"
         id="path78" /><path
         d="m 6792.68,7250.3 58.99,-1019.7 H 8419.1 l -707.87,581.5 -42.14,438.2 L 7391,7520 6792.68,7250.3"
         style="fill:#102048;fill-opacity:1;fill-rule:nonzero;stroke:none"
         id="path80" /><path
         d="m 4913.43,7705.4 -252.81,-910.2 1289.35,-564.6 -379.22,859.6 92.69,387.6 -320.23,421.4 -429.78,-193.8"
         style="fill:#102048;fill-opacity:1;fill-rule:nonzero;stroke:none"
         id="path82" /><path
         d="m 5410.63,12222.3 c 0,0 -151.68,-632.1 -101.12,-2022.5 0,0 -446.64,-1559 -396.08,-2494.4 l 750.01,-227.6 c 392.93,873.1 716.1,1713.1 887.91,2481.3 85.69,271.6 84.06,563.2 -4.65,833.8 l -360.78,1100.7 -775.29,328.7"
         style="fill:#1f3c88;fill-opacity:1;fill-rule:nonzero;stroke:none"
         id="path84" /><path
         d="M 7787.91,10170.8 7669.09,7250.3 h -876.25 c -228.54,951.1 -313.49,1763.1 -343.32,2307.2 -24.77,458.6 -10.62,726.5 -10.62,726.5 -563.26,664.9 -897.99,1145.3 -1092.65,1500.7 -289.22,527.4 -271.53,781.2 -239.16,960.2 43.48,238.2 198.2,546.6 302.87,736.2 58.65,105.2 101.62,174 101.62,174 l 1466.32,-472.3 -174.95,-632.5 -3.03,-10.7 c -26.3,-95 -13.14,-197.2 35.9,-282.6 l 769.05,-1339.4 c 129.95,-226.5 193.66,-485.4 183.04,-746.8"
         style="fill:#3a6bea;fill-opacity:1;fill-rule:nonzero;stroke:none"
         id="path86" /><path
         d="m 7332.04,7231.3 -1.21,0.1 c -10.47,0.6 -18.39,9.7 -17.73,20.1 1.83,29.3 182.58,2933.2 -32.02,3395.4 -37.69,81.1 -101.62,184.8 -175.63,304.7 -309.75,502.1 -828.16,1342.3 -719.31,2553.3 0.91,10.4 9.9,18.3 20.59,17.2 10.42,-1 18.12,-10.2 17.18,-20.6 -107.72,-1198.4 406.55,-2031.9 713.8,-2529.9 74.66,-121 139.13,-225.5 177.79,-308.8 218.61,-470.9 43.03,-3293.8 35.43,-3413.7 -0.62,-10.1 -8.96,-17.8 -18.89,-17.8"
         style="fill:#1f3c88;fill-opacity:1;fill-rule:nonzero;stroke:none"
         id="path88" /><path
         d="m 6802.95,12550.3 c -128.07,52.7 -249.33,110.6 -363.36,171.4 -12.24,91.7 -21.08,186.2 -25.94,283.6 177.77,-67.8 343.99,-120 475.66,-142.8 l -86.36,-312.2 m -404.61,193.7 c -464.4,254.5 -803.96,554.1 -987.29,736 254.15,-144.4 626.5,-328 963.86,-459.7 4.25,-94.7 12.24,-186.9 23.43,-276.3"
         style="fill:#2a4faf;fill-opacity:1;fill-rule:nonzero;stroke:none"
         id="path90" /><path
         d="m 6439.59,12721.7 c -13.86,7.4 -27.61,14.8 -41.25,22.3 -11.19,89.4 -19.18,181.6 -23.43,276.3 13,-5.1 25.85,-10.1 38.74,-15 4.86,-97.4 13.7,-191.9 25.94,-283.6"
         style="fill:#1f3c88;fill-opacity:1;fill-rule:nonzero;stroke:none"
         id="path92" /><path
         d="m 7225.71,6771.2 -14.91,253.3 483.23,8.8 c 12.54,-0.2 19.1,-8.2 19.3,-18.6 0.2,-10.5 -8.14,-19.1 -18.61,-19.3 l -443.73,-8.1 10.37,-176.5 449.01,20.2 c 10.12,0.5 19.36,-7.6 19.8,-18.1 0.47,-10.5 -7.63,-19.3 -18.07,-19.8 l -486.39,-21.9"
         style="fill:#ffffff;fill-opacity:1;fill-rule:nonzero;stroke:none"
         id="path94" /><path
         d="m 5570.75,7071.2 c -1.9,0 -3.86,0.3 -5.75,0.9 l -415.99,132.8 103.77,242.1 366.56,-132.5 c 9.84,-3.6 14.93,-14.4 11.38,-24.3 -3.56,-9.8 -14.45,-15.1 -24.27,-11.4 l -332.93,120.4 -73.2,-170.9 376.18,-120.1 c 10,-3.2 15.5,-13.8 12.32,-23.8 -2.59,-8.1 -10.05,-13.2 -18.07,-13.2"
         style="fill:#ffffff;fill-opacity:1;fill-rule:nonzero;stroke:none"
         id="path96" /><path
         d="m 7496.17,15980.9 -27.31,-102.1 -109.21,-413.1 -73.82,-277.1 -657.31,236.1 317.02,648.7 154.72,223.5 395.91,-316"
         style="fill:#f9b384;fill-opacity:1;fill-rule:nonzero;stroke:none"
         id="path98" /><path
         d="m 7468.86,15878.8 -109.21,-413.1 c -193.65,210.3 -154.22,472.7 -154.22,472.7 l 263.43,-59.6"
         style="fill:#102048;fill-opacity:1;fill-rule:nonzero;stroke:none"
         id="path100" /><path
         d="m 7989.32,16562.2 c 0,0 -42.13,-935.4 -514.05,-855.3 -471.92,80 -463.49,884.8 -463.49,884.8 l 615.17,198.1 362.37,-227.6"
         style="fill:#f9b384;fill-opacity:1;fill-rule:nonzero;stroke:none"
         id="path102" /><path
         d="m 7334.12,16421.1 c 0,0 270.71,279.1 655.2,141.1 0,0 169.6,-71.6 235.96,67.4 0,0 -543.55,720.6 -970.17,372.9 0,0 -764.76,-167.4 -309.69,-929.1 l 388.7,347.7"
         style="fill:#102048;fill-opacity:1;fill-rule:nonzero;stroke:none"
         id="path104" /><path
         d="m 7485.77,16422.9 c 14.47,-90.8 -37.99,-174.6 -117.19,-187.3 -79.19,-12.6 -155.12,50.8 -169.6,141.5 -14.47,90.8 38,174.6 117.19,187.3 79.19,12.6 155.12,-50.8 169.6,-141.5"
         style="fill:#f9b384;fill-opacity:1;fill-rule:nonzero;stroke:none"
         id="path106" /><path
         d="m 8006.18,16090.3 c 0,-46.5 -37.73,-84.3 -84.28,-84.3 -46.54,0 -84.27,37.8 -84.27,84.3 0,46.6 37.73,84.3 84.27,84.3 46.55,0 84.28,-37.7 84.28,-84.3"
         style="fill:#f9b384;fill-opacity:1;fill-rule:nonzero;stroke:none"
         id="path108" /><path
         d="m 7595.36,16031.3 c -80.29,0 -145.38,65.1 -145.38,145.4 0,80.3 65.09,145.4 145.38,145.4 80.28,0 145.36,-65.1 145.36,-145.4 0,-80.3 -65.08,-145.4 -145.36,-145.4"
         style="fill:#f39176;fill-opacity:1;fill-rule:nonzero;stroke:none"
         id="path110" /><path
         d="m 10323.6,14663.8 c 0,0 87,-119.4 -90.5,-238.7 0,0 141.1,-96.6 -345.32,-255.8 -54.11,-17.7 -115.79,-35.9 -186.58,-55.1 l -195.17,708.8 c 0,0 868.17,293.3 889.87,199.3 21.8,-94.1 -155.2,-221 -155.2,-221 0,0 311,76.4 82.9,-137.5"
         style="fill:#f9b384;fill-opacity:1;fill-rule:nonzero;stroke:none"
         id="path112" /><path
         d="m 9506.07,14823.2 -1027.98,-131.8 c 0,0 -1478.96,1053.4 -1782.33,952.3 -303.37,-101.1 -1327.26,-1744.4 -1327.26,-1744.4 0,0 -278.1,-88.5 -265.46,-202.3 12.64,-113.8 1807.62,-1044.9 2047.78,-809 151.04,148.4 324.45,1331.5 324.45,1331.5 l 654.11,-272.1 c 193.94,-80.6 408.19,-98.9 612.98,-52.2 l 959.1,218.8 -195.39,709.2"
         style="fill:#fbc343;fill-opacity:1;fill-rule:nonzero;stroke:none"
         id="path114" /><path
         d="m 9436.69,14053.6 v 0 l 36.98,8.4 v 0 l -36.98,-8.4 m -180.51,737.5 v 0 l 11.39,1.5 -11.38,-1.5"
         style="fill:#fdfdfd;fill-opacity:1;fill-rule:nonzero;stroke:none"
         id="path116" /><path
         d="m 9436.69,14053.6 c -10.8,42.4 -21.6,84.7 -32.37,126.9 -35.36,138.2 -69.85,273 -101.23,402.7 -8.81,36.3 -16.86,73.5 -24.96,110.8 -7.03,32.3 -14.31,64.8 -21.95,97.1 l 11.39,1.5 26.45,3.4 c 7.34,-31.3 14.38,-62.7 21.17,-94 8.02,-37 16.02,-73.8 24.73,-109.9 31.36,-129.5 65.83,-264.2 101.13,-402.2 10.87,-42.5 21.75,-85.2 32.62,-127.9 l -36.98,-8.4"
         style="fill:#fef3d9;fill-opacity:1;fill-rule:nonzero;stroke:none"
         id="path118" /><path
         d="m 7011.07,15091.2 c -90.2,0 -180.67,6.5 -270.69,21.7 -157.65,26.7 -302.79,81.7 -426.35,158.3 8.1,10.1 16.03,19.8 24.02,29.7 118.5,-72.7 257.57,-125 408.64,-150.6 87.78,-14.9 176.13,-21.2 264.38,-21.2 211.43,0 422.3,36.3 623.28,78.2 15.63,3.2 31.24,6.7 46.86,10 15.63,-9.5 31.15,-19.1 46.67,-28.7 -28.59,-6.2 -57.17,-12.5 -85.78,-18.5 -203.15,-42.3 -416.4,-78.9 -631.03,-78.9"
         style="fill:#fef3d9;fill-opacity:1;fill-rule:nonzero;stroke:none"
         id="path120" /><path
         d="m 7107.79,13348.2 c -27.99,0 -56.03,1 -83.96,3.6 -262.6,24.5 -492.81,185.7 -643.12,304.8 -52.22,41.4 -103.37,84.4 -154.5,127.4 -128.04,107.6 -260.42,218.9 -407.86,300.9 -88.2,49.1 -177.63,83.7 -264.99,103.7 7.16,11.1 14.14,21.8 21.62,33.3 86.66,-21.2 174.87,-55.5 261.79,-103.8 150.64,-83.9 284.44,-196.3 413.83,-305.1 50.86,-42.8 101.72,-85.5 153.66,-126.7 146.53,-116.1 370.53,-273.2 623.07,-296.7 26.63,-2.5 53.49,-3.5 80.43,-3.5 60.08,0 120.55,5 179.64,9.9 12.61,1 25.24,1.6 37.86,2.6 -2.92,-13 -5.85,-25.8 -8.81,-38.6 -8.63,-0.7 -17.28,-1.1 -25.91,-1.8 -59.93,-5 -121.27,-10 -182.75,-10"
         style="fill:#fef3d9;fill-opacity:1;fill-rule:nonzero;stroke:none"
         id="path122" /><path
         d="M 7475.27,14219.5 7209,14336.3 c 0,0 67.99,-423.1 196.41,-483.5 l 69.86,366.7"
         style="fill:#e49b31;fill-opacity:1;fill-rule:nonzero;stroke:none"
         id="path124" /><path
         d="m 9887.78,14169.3 c -54.11,-17.7 -115.79,-35.9 -186.58,-55.1 l -195.17,708.8 381.75,-653.7"
         style="fill:#e28b6d;fill-opacity:1;fill-rule:nonzero;stroke:none"
         id="path126" /><path
         d="m 21586.4,9892.2 619.4,-278.1 461.6,1519.4 -604.6,158.9 c -159.8,-357.2 -322.7,-814.3 -476.4,-1400.2"
         style="fill:#e28b6d;fill-opacity:1;fill-rule:nonzero;stroke:none"
         id="path128" /><path
         d="m 22062.8,11292.4 604.6,-158.9 516,1417.4 c 0,0 -623.6,84.3 -1120.6,-1258.5"
         style="fill:#102048;fill-opacity:1;fill-rule:nonzero;stroke:none"
         id="path130" /><path
         d="m 21329.4,10418.9 -446.6,-1230.4 1668.5,-640.4 337.1,1280.9 -1559,589.9"
         style="fill:#102048;fill-opacity:1;fill-rule:nonzero;stroke:none"
         id="path132" /><path
         d="m 21878.3,8779.3 c -12.1,-34.8 -112,-76.4 -176.1,-19.5 -124.9,22.1 -209.2,37.9 -287.1,124 -70,26.9 -101.4,103 -69.4,167.2 61.3,122.9 156.3,296.1 201.4,289.3 56.7,-8.6 15.7,-183.6 15.7,-183.6 0,0 94.4,222 184.1,192.7 39.9,-13.2 -56.2,-224.5 -65.9,-246.8 15.1,20.2 135,181.5 180.9,147.6 45.9,-34.3 -65.9,-225 -77.8,-245.2 13,16.2 118.3,143.1 169.6,101.1 22.2,-18.5 -12.7,-147.4 -75.4,-326.8"
         style="fill:#e28b6d;fill-opacity:1;fill-rule:nonzero;stroke:none"
         id="path134" /><path
         d="m 25012,4545.2 c 0,0 809,88.5 1150.3,834.3 l -897.4,-50.6 -252.9,-783.7"
         style="fill:#102048;fill-opacity:1;fill-rule:nonzero;stroke:none"
         id="path136" /><path
         d="m 25905.3,5371.1 -775.3,-480.4 348.8,-512.3 747.6,509.4 -321.1,483.3"
         style="fill:#e28b6d;fill-opacity:1;fill-rule:nonzero;stroke:none"
         id="path138" /><path
         d="m 26705.9,4166 -479.5,721.8 -747.6,-509.4 127.4,-187.1 -75.9,-998.7 1175.6,973.4"
         style="fill:#102048;fill-opacity:1;fill-rule:nonzero;stroke:none"
         id="path140" /><path
         d="m 25607.4,4166 -2.5,50.5 379.5,19.2 2.6,-50.5 -379.6,-19.2"
         style="fill:#ffffff;fill-opacity:1;fill-rule:nonzero;stroke:none"
         id="path142" /><path
         d="m 23697.4,4005.9 -851.1,50.5 v -689.1 l 915.6,58.1 -64.5,580.5"
         style="fill:#e28b6d;fill-opacity:1;fill-rule:nonzero;stroke:none"
         id="path144" /><path
         d="m 22846.3,3367.3 v -162 l -640.5,-640.5 h 1651.7 l -95.6,860.6 -915.6,-58.1"
         style="fill:#102048;fill-opacity:1;fill-rule:nonzero;stroke:none"
         id="path146" /><path
         d="m 23176.9,2960.2 -362.7,210.6 25.4,43.7 362.7,-210.6 -25.4,-43.7"
         style="fill:#ffffff;fill-opacity:1;fill-rule:nonzero;stroke:none"
         id="path148" /><path
         d="m 23654.4,8405.6 c -13.1,-313.4 -15.6,-644.1 -10.1,-977.3 5.1,-289.2 15.7,-580.5 30.9,-865.2 72.8,-1414.2 241.1,-2666.6 241.1,-2666.6 l -1314.6,-168.9 c -623.4,4348.4 -218.9,6185.8 -218.9,6185.8 l 572.9,116.8 508.6,103.7 570.4,116.3 c -7.1,-10.7 -14.2,-21.8 -20.8,-33.4 -86.9,-142.1 -155.7,-331.2 -208.8,-555.7 -83.4,-349.4 -129.9,-783.2 -150.7,-1255.5"
         style="fill:#3a6bea;fill-opacity:1;fill-rule:nonzero;stroke:none"
         id="path150" /><path
         d="M 23675.2,6563.1 C 23124,7734.7 23330.8,8666 23330.8,8666 l 323.6,-260.4 c -13.1,-313.4 -15.6,-644.1 -10.1,-977.3 5.1,-289.2 15.7,-580.5 30.9,-865.2"
         style="fill:#1f3c88;fill-opacity:1;fill-rule:nonzero;stroke:none"
         id="path152" /><path
         d="m 26162.3,5379.5 c -632,-240.2 -1150.3,-834.3 -1150.3,-834.3 -545.5,964.2 -1011.2,1932.5 -1367.7,2883.1 -296.8,790.8 -517.7,1569.4 -645.7,2322.8 -15.6,93.6 -30.3,186.6 -42.9,279.1 -1.6,8.6 -3.1,17.7 -4.1,26.3 l 512.7,77.4 549.6,82.9 277.6,42 c 29.9,-177 69.8,-362.1 117.8,-552.7 478.4,-1903.2 1753,-4326.6 1753,-4326.6"
         style="fill:#3a6bea;fill-opacity:1;fill-rule:nonzero;stroke:none"
         id="path154" /><path
         d="m 25050.2,7803.7 c -0.1,0 -0.1,0.1 -0.1,0.1 -8.1,20 -16,39.8 -24,59.9 v 0 c 8,-20 16,-40 24.1,-60 M 24509.3,9339 c -5.4,18.4 -10.7,36.7 -15.9,55.1 0,0 0,0 0,0.1 5.3,-18.4 10.5,-36.7 15.9,-55.2 v 0"
         style="fill:#fdfdfd;fill-opacity:1;fill-rule:nonzero;stroke:none"
         id="path156" /><path
         d="m 25050.1,7803.8 c -121.5,74.8 -239,157.4 -339.2,260.1 -246.2,252.6 -370.7,626.8 -325,976.6 16,122.2 53.3,241.8 107.5,353.6 5.2,-18.4 10.5,-36.7 15.9,-55.1 -42.6,-96.9 -72.1,-199.2 -85.7,-303.5 -44.4,-338.5 76.1,-700.6 314.5,-945.1 85.3,-87.5 184.4,-160.4 288,-226.7 8,-20.1 15.9,-39.9 24,-59.9"
         style="fill:#d8e1fb;fill-opacity:1;fill-rule:nonzero;stroke:none"
         id="path158" /><path
         d="m 25711.6,6293.7 c -5.3,11.2 -10.6,22.4 -15.9,33.8 v 0 c 5.3,-11.4 10.6,-22.6 15.9,-33.8 v 0"
         style="fill:#fdfdfd;fill-opacity:1;fill-rule:nonzero;stroke:none"
         id="path160" /><path
         d="m 24343.1,5815.9 c -6.5,13.4 -13.1,26.7 -19.6,40.1 90.9,137.6 216,249.8 377.3,312.7 158.7,61.9 339.7,72.2 514.8,82.1 173.5,9.9 340.6,19.7 480.1,76.7 5.3,-11.4 10.6,-22.6 15.9,-33.8 -148,-60.7 -322.7,-71 -493.9,-80.7 -172,-9.8 -350,-19.9 -503.2,-79.6 -160.8,-62.8 -283.7,-177.4 -371.4,-317.5"
         style="fill:#d8e1fb;fill-opacity:1;fill-rule:nonzero;stroke:none"
         id="path162" /><path
         d="m 23745.2,5530.6 v 0 c -1.8,20.7 -3.5,41.6 -5.2,62.5 0.1,0 0.1,-0.1 0.1,-0.1 1.7,-20.9 3.4,-41.7 5.1,-62.4"
         style="fill:#fdfdfd;fill-opacity:1;fill-rule:nonzero;stroke:none"
         id="path164" /><path
         d="m 23745.2,5530.6 c -301.2,335.7 -641.8,693.6 -1062.3,907.1 -124.9,63.4 -253.3,110.2 -381.4,140.9 -0.9,13.3 -1.7,26.5 -2.5,39.7 134.8,-31.3 269.8,-80.2 401,-146.8 411,-208.6 744.8,-551.2 1040,-878.4 1.7,-20.9 3.4,-41.8 5.2,-62.5"
         style="fill:#d8e1fb;fill-opacity:1;fill-rule:nonzero;stroke:none"
         id="path166" /><path
         d="m 23850,4449.4 c -1.4,12.4 -2.8,25 -4.2,37.8 0.1,0 0.1,0 0.1,0 1.4,-12.7 2.8,-25.6 4.1,-37.8 v 0"
         style="fill:#fdfdfd;fill-opacity:1;fill-rule:nonzero;stroke:none"
         id="path168" /><path
         d="m 23700.3,4433.2 c -62.5,0 -123.6,7.7 -178.4,20.5 -101.6,23.8 -199.8,62.7 -294.9,100.2 -98.4,38.9 -200.2,79.1 -304.5,101.8 -65.8,14.4 -133,21.3 -200.4,21.3 -81.3,0 -162.7,-10.1 -241.8,-29.5 -1.6,12.6 -3.2,25.4 -4.7,38 80.7,19.4 163.6,29.5 246.4,29.5 70.1,0 140.1,-7.3 208.6,-22.2 107.2,-23.4 210.5,-64.2 310.4,-103.7 93.7,-36.9 190.7,-75.3 289.6,-98.4 52.3,-12.3 110.7,-19.7 170.2,-19.7 48.5,0 97.8,4.9 145,16.2 1.4,-12.8 2.8,-25.4 4.2,-37.8 -49,-11.3 -99.8,-16.2 -149.7,-16.2"
         style="fill:#d8e1fb;fill-opacity:1;fill-rule:nonzero;stroke:none"
         id="path170" /><path
         d="m 22265.2,7344.5 c -0.1,1.7 -0.1,3.3 -0.2,4.9 v 0 c 0.1,-1.6 0.1,-3.2 0.2,-4.9"
         style="fill:#fdfdfd;fill-opacity:1;fill-rule:nonzero;stroke:none"
         id="path172" /><path
         d="m 22266.7,7300.7 c -0.5,14.5 -1.1,29.3 -1.5,43.8 -0.1,1.7 -0.1,3.3 -0.2,4.9 197.6,172.2 317.7,432.7 303.9,697.5 -12.3,234.6 -128.9,455 -304.4,607 0.5,16.1 1.1,32 1.8,47.7 195.8,-159 327.1,-397.8 340.4,-652.7 15,-286.7 -120,-569 -340,-748.2"
         style="fill:#d8e1fb;fill-opacity:1;fill-rule:nonzero;stroke:none"
         id="path174" /><path
         d="m 22998.6,9751.1 v 0 c -367.1,72.3 -615.8,162.3 -615.8,162.3 l 572.9,116.8 v 0 0 c 12.6,-92.5 27.3,-185.5 42.9,-279.1 v 0 m 465.7,382.8 570.4,116.3 c -7.1,-10.7 -14.2,-21.8 -20.8,-33.4 v 0 l -549.6,-82.9"
         style="fill:#2f58c3;fill-opacity:1;fill-rule:nonzero;stroke:none"
         id="path176" /><path
         d="m 23864.9,9660.7 c -20,0 -39.9,0.1 -59.8,0.4 -294.8,5.1 -574.4,44 -806.5,90 v 0 c -15.6,93.6 -30.3,186.6 -42.9,279.1 v 0 c -1.6,8.6 -3.1,17.7 -4.1,26.3 l 512.7,77.4 549.6,82.9 v 0 l 277.6,42 c 29.9,-177 69.8,-362.1 117.8,-552.7 -181,-32.7 -365,-45.4 -544.4,-45.4"
         style="fill:#2f58c3;fill-opacity:1;fill-rule:nonzero;stroke:none"
         id="path178" /><path
         d="m 23644.3,7403 c -10.4,0 -20.1,6.4 -23.8,16.8 l -365.2,1027 -439,265 c -11.9,7.2 -15.7,22.8 -8.5,34.7 7.2,12 22.8,15.7 34.7,8.6 l 454.4,-274.3 371.2,-1044.1 c 4.7,-13.1 -2.1,-27.6 -15.3,-32.3 -2.8,-1 -5.7,-1.4 -8.5,-1.4"
         style="fill:#1f3c88;fill-opacity:1;fill-rule:nonzero;stroke:none"
         id="path180" /><path
         d="m 24506.4,10062.6 c -846.9,-322.1 -2300.6,-141.1 -2300.6,-141.1 59.2,615.4 63.2,2435.6 1011.3,2663.1 l 423.7,-44.5 c 222,-86.9 395.4,-418.6 525.8,-812.5 78.4,-234.6 141.1,-491.5 190.7,-732.1 104.1,-503.1 149.1,-932.9 149.1,-932.9"
         style="fill:#1f3c88;fill-opacity:1;fill-rule:nonzero;stroke:none"
         id="path182" /><path
         d="m 24357.3,10995.5 c -399,232 -482.9,754.9 -482.9,754.9 l 292.2,-22.8 c 78.4,-234.6 141.1,-491.5 190.7,-732.1"
         style="fill:#102048;fill-opacity:1;fill-rule:nonzero;stroke:none"
         id="path184" /><path
         d="m 23640.5,12540.4 -56.8,-815.3 870.2,-464.7 176.1,844.7 c -765.1,451.9 -989.5,435.3 -989.5,435.3"
         style="fill:#1f3c88;fill-opacity:1;fill-rule:nonzero;stroke:none"
         id="path186" /><path
         d="m 25298.2,11419.7 c -20.7,-31.4 -44,-60.7 -70.3,-87.5 -47.5,-49.5 -103.6,-90 -166.3,-120.3 -92.5,-45 -193.7,-64.2 -293.8,-58.2 -83.9,5.1 -166.3,28.3 -242.7,68.8 l -71.3,37.9 176.5,844.9 c 47,-28.3 96.1,-57.6 148.1,-89.5 0,0 688.7,973.3 739.3,954.1 45.5,-16.7 -31.9,-167.3 -47.6,-197.2 29.9,44 253.4,371.7 313,348.9 47.5,-17.7 -12.6,-163.3 -20.2,-181 13.6,19.7 133.5,196.2 205.8,153.7 33.4,-19.7 -95.6,-210.8 -108.2,-230 15.7,15.1 158.7,153.7 194.1,112.2 36.4,-42 -102.6,-207.3 -118.3,-226 14.2,12.6 136.5,119.3 175.5,67.7 51,-66.2 -574.9,-1034.5 -813.6,-1398.5"
         style="fill:#e28b6d;fill-opacity:1;fill-rule:nonzero;stroke:none"
         id="path188" /><path
         d="m 24803.9,11152.6 c -12.1,0 -24.1,0.4 -36.1,1.1 v 0 c -4.5,18.2 -6.5,36.9 -6.5,56.1 0,137.6 111.7,249.3 249.2,249.3 93.1,0 174.5,-51 217.4,-126.9 -47.5,-49.5 -103.6,-90 -166.3,-120.3 -8.7,-4.2 -17.4,-8.2 -26.2,-12 -74,-31.6 -152.7,-47.3 -231.5,-47.3"
         style="fill:#e67968;fill-opacity:1;fill-rule:nonzero;stroke:none"
         id="path190" /><path
         d="m 23117,10092.8 c -373.8,0 -708.6,23.9 -872.9,37.9 -11.2,1 -17.9,1.6 -19.8,1.7 -10.3,0.4 -18.5,9 -18.3,19.3 0.2,10.3 8.5,18.6 18.8,18.6 1.3,0 9,-0.6 22.5,-1.8 374.4,-32.1 1640.1,-115.8 2213.2,151.7 9.3,4.4 20.8,0.3 25.2,-9.2 4.4,-9.5 0.3,-20.8 -9.2,-25.2 -328,-153 -876.2,-193 -1359.5,-193"
         style="fill:#86a7ff;fill-opacity:1;fill-rule:nonzero;stroke:none"
         id="path192" /><path
         d="m 23315.5,12009.8 c -201.1,0 -290.1,132.8 -291.3,134.8 -5.7,8.8 -3.2,20.5 5.6,26.1 8.8,5.7 20.4,3.3 26.2,-5.5 6.6,-10.1 165.3,-243.2 565,-27.3 9.2,4.8 20.7,1.5 25.7,-7.7 5,-9.2 1.5,-20.8 -7.7,-25.7 -129.8,-70.1 -237.1,-94.7 -323.5,-94.7"
         style="fill:#86a7ff;fill-opacity:1;fill-rule:nonzero;stroke:none"
         id="path194" /><path
         d="m 23981.1,14125.3 c 106.1,59.7 249.4,65.1 343.6,-12.2 49.1,-40.2 80.6,-98.1 126.2,-142.3 97.7,-94.9 249.6,-118.8 343.2,-217.7 72.3,-76.4 98.1,-187.9 90.9,-292.8 -7.3,-105 -44.1,-205.4 -83.3,-303 -55.9,-139.4 -120.4,-281 -232.1,-381.5 -42.6,-38.3 -92.6,-70.3 -148.6,-83.2 -55.9,-12.9 -118.3,-4.7 -163.8,30.3 -48,37 -71.7,98.8 -75.9,159.2 -4.1,60.5 8.7,120.6 21.5,179.8 30.5,-18.7 71.8,-18.4 102,0.9 30.1,19.3 47.7,56.6 43.5,92.1 -7.2,60.4 -66.7,98.3 -120,127.5 -88.3,48.4 -176.6,96.8 -264.9,145.1 -51.7,28.4 -104.5,57.6 -143.4,101.9 -65,74 -117.2,236.7 -74.2,330.1 47.7,103.7 135.5,209.7 235.3,265.8"
         style="fill:#fbb81d;fill-opacity:1;fill-rule:nonzero;stroke:none"
         id="path196" /><path
         d="m 22932.7,13633.8 c 0,0 -5.5,599.1 738.5,441.2 125.9,-26.7 236,-94.6 316.9,-194.7 121.1,-149.8 198.7,-779.6 -147.4,-954.4 -434,-219.1 -908,707.9 -908,707.9"
         style="fill:#fbc343;fill-opacity:1;fill-rule:nonzero;stroke:none"
         id="path198" /><path
         d="m 23703.5,13128.2 -17.2,-601.7 c -4.6,-152.7 -125.4,-276.6 -278.1,-284.7 -5.1,-0.5 -10.1,-0.5 -15.2,-0.5 -170.9,0 -306.9,146.6 -292.2,319.1 l 1,9.6 39.4,457.1 50.1,9.1 512.2,92"
         style="fill:#e28b6d;fill-opacity:1;fill-rule:nonzero;stroke:none"
         id="path200" /><path
         d="m 23448.7,12913.3 c 0,0 -93.1,-231.6 -346.9,-343.3 l 39.4,457.1 50.1,9.1 257.4,-122.9"
         style="fill:#102048;fill-opacity:1;fill-rule:nonzero;stroke:none"
         id="path202" /><path
         d="m 22932.7,13633.8 c 0,0 -189.7,-790 208.5,-827.9 398.2,-38 562.5,322.3 562.5,322.3 l 50.6,448.7 -246.5,354 -391.9,-120.1 -183.2,-177"
         style="fill:#e28b6d;fill-opacity:1;fill-rule:nonzero;stroke:none"
         id="path204" /><path
         d="m 22932.7,13633.8 c 0,0 366.3,205.5 499.3,-69.5 92.7,-191.7 233.8,-297.1 372.9,-233.9 139,63.2 25.2,518.3 25.2,518.3 l -518.2,132.7 -309.7,-176.9 -69.5,-170.7"
         style="fill:#fbc343;fill-opacity:1;fill-rule:nonzero;stroke:none"
         id="path206" /><path
         d="m 23822.9,13241.3 c -47.8,-82.8 -142,-117.8 -210.5,-78.3 -68.4,39.5 -85.1,138.6 -37.3,221.4 47.8,82.8 142,117.9 210.4,78.4 68.4,-39.5 85.2,-138.7 37.4,-221.5"
         style="fill:#e28b6d;fill-opacity:1;fill-rule:nonzero;stroke:none"
         id="path208" /><path
         d="m 23659.5,13244.1 h -0.9 c -7,0.5 -12.2,6.5 -11.7,13.5 3.2,44.9 31.6,129.7 115.8,129.7 7,0 12.7,-5.6 12.7,-12.6 0,-7 -5.7,-12.7 -12.7,-12.7 -81.7,0 -90.3,-101.9 -90.6,-106.2 -0.5,-6.7 -6,-11.7 -12.6,-11.7"
         style="fill:#102048;fill-opacity:1;fill-rule:nonzero;stroke:none"
         id="path210" /><path
         d="m 22993,13350.1 c 0,-17.8 -14.5,-32.3 -32.3,-32.3 -17.8,0 -32.3,14.5 -32.3,32.3 0,17.8 14.5,32.2 32.3,32.2 17.8,0 32.3,-14.4 32.3,-32.2"
         style="fill:#102048;fill-opacity:1;fill-rule:nonzero;stroke:none"
         id="path212" /><path
         d="m 23243.4,13352.6 c 0,-19.8 -16,-35.9 -35.8,-35.9 -19.8,0 -35.8,16.1 -35.8,35.9 0,19.7 16,35.8 35.8,35.8 19.8,0 35.8,-16.1 35.8,-35.8"
         style="fill:#102048;fill-opacity:1;fill-rule:nonzero;stroke:none"
         id="path214" /><path
         d="m 23060.5,13153.3 c -28,0 -47,8.8 -56.5,26.2 -25.1,45.5 32.9,131.1 44.7,147.7 4.1,5.7 11.9,7.1 17.7,3 5.7,-4.1 7,-12 3,-17.6 -30.8,-43.2 -55.6,-98.6 -43.3,-121 5.3,-9.6 19.2,-13.9 40.7,-12.9 l 0.7,0.1 c 6.7,0 12.3,-5.3 12.6,-12 0.4,-7 -4.9,-12.9 -11.9,-13.3 -2.7,-0.2 -5.2,-0.2 -7.7,-0.2"
         style="fill:#102048;fill-opacity:1;fill-rule:nonzero;stroke:none"
         id="path216" /><path
         d="m 23386.9,13095 c -62.4,0 -112.9,50.6 -112.9,113 0,62.4 50.5,113 112.9,113 62.4,0 113,-50.6 113,-113 0,-62.4 -50.6,-113 -113,-113"
         style="fill:#e67968;fill-opacity:1;fill-rule:nonzero;stroke:none"
         id="path218" /><path
         d="m 23076.2,13043.9 c -34.1,0 -57.7,11.9 -59.5,12.9 -6.2,3.1 -8.6,10.8 -5.4,16.9 3.1,6.2 10.8,8.7 17,5.5 2.9,-1.4 71,-35 141.7,30 5.1,4.7 13.1,4.3 17.8,-0.8 4.7,-5.1 4.4,-13.1 -0.7,-17.8 -40.1,-36.8 -79.9,-46.7 -110.9,-46.7"
         style="fill:#102048;fill-opacity:1;fill-rule:nonzero;stroke:none"
         id="path220" /><path
         d="m 23031.5,13421.4 c -23.8,5 -45.3,11.8 -65.4,11.6 -10,0.7 -19.3,-0.6 -28.7,-3.2 -10,-1.6 -19,-7 -30.8,-11.6 l -1.2,-0.5 c -4,-1.5 -8.5,0.5 -10,4.4 -0.8,2 -0.7,4.2 0.1,6 5.7,12.7 15.2,24.6 28.5,32 13.1,7.3 28.7,11 43.5,10.4 29.5,-2.6 55.6,-14.9 72.8,-37.2 2.5,-3.3 1.9,-8.1 -1.4,-10.7 -1.9,-1.5 -4.2,-1.9 -6.3,-1.5 l -1.1,0.3"
         style="fill:#102048;fill-opacity:1;fill-rule:nonzero;stroke:none"
         id="path222" /><path
         d="m 23125.2,13432.3 c 17.5,30.3 49.5,51.5 87.5,55.5 18.8,1.3 38.5,-2.9 54.3,-12.1 16.2,-8.9 28.5,-22.1 37.4,-36.7 2.2,-3.6 1,-8.3 -2.6,-10.5 -2.2,-1.3 -4.7,-1.4 -6.9,-0.5 l -0.8,0.4 c -14.8,6.4 -27.2,13.8 -40.5,17.1 -12.8,4.6 -25.5,5.9 -38.3,4.8 -25.8,-0.5 -52.2,-13.6 -79.1,-27.9 l -0.9,-0.5 c -3.7,-2 -8.3,-0.6 -10.2,3.1 -1.3,2.4 -1.1,5.2 0.1,7.3"
         style="fill:#102048;fill-opacity:1;fill-rule:nonzero;stroke:none"
         id="path224" /><path
         d="M 29158.2,2539.5 H 1095.96 v 50.6 H 29158.2 v -50.6"
         style="fill:#102048;fill-opacity:1;fill-rule:nonzero;stroke:none"
         id="path226" /></g></g></svg>
