<?xml version="1.0" encoding="UTF-8" standalone="no"?>
<svg
   xmlns:dc="http://purl.org/dc/elements/1.1/"
   xmlns:cc="http://creativecommons.org/ns#"
   xmlns:rdf="http://www.w3.org/1999/02/22-rdf-syntax-ns#"
   xmlns:svg="http://www.w3.org/2000/svg"
   xmlns="http://www.w3.org/2000/svg"
   xmlns:sodipodi="http://sodipodi.sourceforge.net/DTD/sodipodi-0.dtd"
   xmlns:inkscape="http://www.inkscape.org/namespaces/inkscape"
   version="1.1"
   id="svg2"
   xml:space="preserve"
   width="4066.72"
   height="2666.6667"
   viewBox="0 0 4066.72 2666.6667"
   sodipodi:docname="19220.eps"><metadata
     id="metadata8"><rdf:RDF><cc:Work
         rdf:about=""><dc:format>image/svg+xml</dc:format><dc:type
           rdf:resource="http://purl.org/dc/dcmitype/StillImage" /></cc:Work></rdf:RDF></metadata><defs
     id="defs6"><clipPath
       clipPathUnits="userSpaceOnUse"
       id="clipPath22"><path
         d="m 25110,7396.5 -42.3,772.2 -1662.5,240.2 -259.4,-728.3 c -159,-17.4 -317.5,-44.4 -474.4,-81.2 l 391.8,-1856.8 c 587.8,152.1 1220.4,36.5 1717.7,-320.7 l 903.6,1676.8 c -184,115.7 -376.3,214.9 -574.5,297.8 z"
         id="path20" /></clipPath><linearGradient
       x1="0"
       y1="0"
       x2="1"
       y2="0"
       gradientUnits="userSpaceOnUse"
       gradientTransform="matrix(-1719.54,4713.87,4713.87,1719.54,25276.7,3945.6)"
       spreadMethod="pad"
       id="linearGradient28"><stop
         style="stop-opacity:1;stop-color:#ff9f55"
         offset="0"
         id="stop24" /><stop
         style="stop-opacity:1;stop-color:#ffd255"
         offset="1"
         id="stop26" /></linearGradient><clipPath
       clipPathUnits="userSpaceOnUse"
       id="clipPath38"><path
         d="m 11592.6,7096.3 v 80 c 834.2,0 1574,500.2 1884.6,1274.3 l 74.2,-29.8 C 13228.6,7616.2 12459.7,7096.3 11592.6,7096.3 Z"
         id="path36" /></clipPath><linearGradient
       x1="0"
       y1="0"
       x2="1"
       y2="0"
       gradientUnits="userSpaceOnUse"
       gradientTransform="matrix(-312.15,401.918,401.918,312.15,12797.7,7467.9)"
       spreadMethod="pad"
       id="linearGradient44"><stop
         style="stop-opacity:1;stop-color:#ff9f55"
         offset="0"
         id="stop40" /><stop
         style="stop-opacity:1;stop-color:#ffd255"
         offset="1"
         id="stop42" /></linearGradient><clipPath
       clipPathUnits="userSpaceOnUse"
       id="clipPath54"><path
         d="m 11592.6,6505.2 v 80 c 615.2,0 1194.7,201.3 1675.9,582.3 l 49.7,-62.7 C 12822.7,6712.5 12226,6505.2 11592.6,6505.2 Z"
         id="path52" /></clipPath><linearGradient
       x1="0"
       y1="0"
       x2="1"
       y2="0"
       gradientUnits="userSpaceOnUse"
       gradientTransform="matrix(-397.562,511.894,511.894,397.562,12634.8,6573.9)"
       spreadMethod="pad"
       id="linearGradient60"><stop
         style="stop-opacity:1;stop-color:#ff9f55"
         offset="0"
         id="stop56" /><stop
         style="stop-opacity:1;stop-color:#ffd255"
         offset="1"
         id="stop58" /></linearGradient><clipPath
       clipPathUnits="userSpaceOnUse"
       id="clipPath70"><path
         d="m 13561.2,6367.7 -44.7,66.2 c 540.6,365.3 964.9,873 1226.9,1468.3 l 73.3,-32.3 c -268.2,-609.1 -702.3,-1128.5 -1255.5,-1502.2 z"
         id="path68" /></clipPath><linearGradient
       x1="0"
       y1="0"
       x2="1"
       y2="0"
       gradientUnits="userSpaceOnUse"
       gradientTransform="matrix(-303.374,390.619,390.619,303.374,14321.4,6948.2)"
       spreadMethod="pad"
       id="linearGradient76"><stop
         style="stop-opacity:1;stop-color:#ff9f55"
         offset="0"
         id="stop72" /><stop
         style="stop-opacity:1;stop-color:#ffd255"
         offset="1"
         id="stop74" /></linearGradient><clipPath
       clipPathUnits="userSpaceOnUse"
       id="clipPath88"><path
         d="m 8298.45,5999.3 1315.31,-936.1 557.54,523.3 23.4,-9 c 146.8,-56.1 298,-103.5 450,-141.2 l 338.9,1790.2 c -216.7,65.5 -421.1,166.1 -608.1,299.2 -943.05,671.3 -1164.34,1984.6 -493.28,2927.7 671.18,943.2 1984.48,1164.4 2927.68,493.3 651.5,-463.6 984.2,-1266.4 854.5,-2053.9 l 1766.5,-435.2 c 29.3,145.1 50.5,292.8 63.1,439.7 l 2.1,25 714.9,273.5 -268.2,1591.7 -765,24.3 -10.2,22.9 c -148.6,333.2 -342.5,643.1 -576.2,921.1 l -16.2,19.2 311.8,698.3 -1315.3,935.8 -557.6,-523.2 -23.4,9 c -339,129.8 -695.4,211.4 -1059.1,242.5 l -25,2.2 -273.5,715 -1591.7,-268.4 -24.3,-764.9 -22.89,-10.3 c -333.82,-148.8 -643.73,-342.7 -921.09,-576.2 l -19.18,-16.1 -698.36,311.7 -935.83,-1315.3 523.26,-557.6 -8.96,-23.4 c -129.82,-339 -211.43,-695.2 -242.57,-1058.8 l -2.14,-25 -715.08,-273.8 268.17,-1591.7 765.2,-24.2 10.22,-22.9 c 148.74,-333.5 342.6,-643.3 576.22,-920.9 l 16.13,-19.2 z m 1322.31,-1039.2 -1422.05,1012 318.04,712.4 c -225.93,272 -414.74,573.7 -561.67,897.7 l -780.66,24.7 -289.94,1720.9 729.51,279.3 c 32.56,354.1 112.04,701 236.44,1032.2 l -533.82,568.8 1011.76,1422.1 712.48,-318.1 c 271.76,225.8 573.64,414.7 897.89,561.7 l 24.75,780.4 1720.91,290.2 279,-729.5 c 354.2,-32.5 701.3,-112 1032.4,-236.5 l 568.9,533.9 1422,-1011.8 -318,-712.5 c 226,-272.3 414.8,-574.1 561.7,-897.8 l 780.4,-24.8 289.9,-1720.9 -729.2,-279 c -14.4,-155.7 -38.1,-311.9 -70.7,-465 l -8.6,-40.4 -1919.8,473 6.8,37 c 141.1,768.9 -179.1,1558.4 -815.7,2011.4 -907.2,645.6 -2170.5,432.7 -2816.1,-474.5 -645.49,-907.1 -432.63,-2170.4 474.5,-2816.2 189.6,-134.9 397.8,-235 618.6,-297.6 l 35.3,-10 -368.1,-1944.2 -40.8,9.6 c -161,38.1 -321.4,86.9 -477.3,145.3 z"
         id="path86" /></clipPath><linearGradient
       x1="0"
       y1="0"
       x2="1"
       y2="0"
       gradientUnits="userSpaceOnUse"
       gradientTransform="matrix(-4763.93,6133.95,6133.95,4763.93,13484.3,6800.7)"
       spreadMethod="pad"
       id="linearGradient94"><stop
         style="stop-opacity:1;stop-color:#ff9f55"
         offset="0"
         id="stop90" /><stop
         style="stop-opacity:1;stop-color:#ffd255"
         offset="1"
         id="stop92" /></linearGradient><clipPath
       clipPathUnits="userSpaceOnUse"
       id="clipPath104"><path
         d="m 9914.88,10430.2 c 159.92,224.9 356.92,408 576.72,546.7 l -940.55,1648.3 c -175.79,-105.7 -344.34,-225.7 -503.7,-359.8 l -705.29,314.9 -486.89,-684.3 -486.88,-684.3 528.53,-563.3 c -133.18,-347.8 -214.2,-708 -245.15,-1069.7 l -722.31,-276.5 139.69,-828.2 139.49,-828.1 772.74,-24.5 c 148.1,-331.7 342.44,-645.5 582.24,-930.4 l -314.9,-705.3 684.28,-487.2 684.46,-486.9 563.14,528.5 c 162.8,-62.1 328.3,-113.1 495.7,-152.5 l 353.5,1867.1 c -220.3,62.3 -433.8,163.2 -631,303.5 -926.57,659.6 -1143.26,1945.4 -483.82,2872 z m 6201.62,-431.9 -139.6,828.2 -772.8,24.5 c -147.9,331.7 -342.6,645.6 -582,930.6 l 314.9,705.2 -1368.8,974 -563.1,-528.5 c -142.2,54.4 -286.4,100.1 -432,137.2 l -348,-1873.1 c 195.7,-63 385.2,-156.8 561.6,-282.4 673.4,-479 971.9,-1288.7 832,-2051.1 l 1843,-454 c 34.2,160.7 58.3,322.7 72.2,485 l 722,276.3 z"
         id="path102" /></clipPath><linearGradient
       x1="0"
       y1="0"
       x2="1"
       y2="0"
       gradientUnits="userSpaceOnUse"
       gradientTransform="matrix(-7194.52,9263.53,9263.53,7194.52,15681.4,3971.9)"
       spreadMethod="pad"
       id="linearGradient110"><stop
         style="stop-opacity:1;stop-color:#ff9f55"
         offset="0"
         id="stop106" /><stop
         style="stop-opacity:1;stop-color:#ffd255"
         offset="1"
         id="stop108" /></linearGradient><clipPath
       clipPathUnits="userSpaceOnUse"
       id="clipPath182"><path
         d="m 20750.3,12592.6 c 164.1,123.2 317,258 457.9,402.9 l -1318,1366 c -197.5,-214.8 -444.1,-390.9 -731.7,-509.3 -828,-340.8 -1749.8,-102.7 -2316.1,527.1 l -1293.6,-1392 c 136.5,-139.5 282.5,-267.7 436.6,-384 l -150.5,-758.4 775.1,-323.1 775.3,-322.9 432.3,640.9 c 359.6,-51.5 728.8,-53.8 1097.6,-2.9 l 429.3,-642.2 776.6,319.9 776.6,319.8 z"
         id="path180" /></clipPath><linearGradient
       x1="0"
       y1="0"
       x2="1"
       y2="0"
       gradientUnits="userSpaceOnUse"
       gradientTransform="matrix(-515.203,5203.57,5203.57,515.203,18723.9,9503)"
       spreadMethod="pad"
       id="linearGradient188"><stop
         style="stop-opacity:1;stop-color:#ff9f55"
         offset="0"
         id="stop184" /><stop
         style="stop-opacity:1;stop-color:#ffd255"
         offset="1"
         id="stop186" /></linearGradient></defs><sodipodi:namedview
     pagecolor="#ffffff"
     bordercolor="#666666"
     borderopacity="1"
     objecttolerance="10"
     gridtolerance="10"
     guidetolerance="10"
     inkscape:pageopacity="0"
     inkscape:pageshadow="2"
     inkscape:window-width="640"
     inkscape:window-height="480"
     id="namedview4" /><g
     id="g10"
     inkscape:groupmode="layer"
     inkscape:label="ink_ext_XXXXXX"
     transform="matrix(1.3333333,0,0,-1.3333333,0,2666.6667)"><g
       id="g12"
       transform="scale(0.1)"><path
         d="M 30500.4,20000 V 0 H 0 v 20000 h 30500.4"
         style="fill:#fafafa;fill-opacity:1;fill-rule:nonzero;stroke:none"
         id="path14" /><g
         id="g16"><g
           id="g18"
           clip-path="url(#clipPath22)"><path
             d="m 25110,7396.5 -42.3,772.2 -1662.5,240.2 -259.4,-728.3 c -159,-17.4 -317.5,-44.4 -474.4,-81.2 l 391.8,-1856.8 c 587.8,152.1 1220.4,36.5 1717.7,-320.7 l 903.6,1676.8 c -184,115.7 -376.3,214.9 -574.5,297.8"
             style="fill:url(#linearGradient28);fill-opacity:1;fill-rule:nonzero;stroke:none"
             id="path30" /></g></g><g
         id="g32"><g
           id="g34"
           clip-path="url(#clipPath38)"><path
             d="m 11592.6,7096.3 v 80 c 834.2,0 1574,500.2 1884.6,1274.3 l 74.2,-29.8 C 13228.6,7616.2 12459.7,7096.3 11592.6,7096.3"
             style="fill:url(#linearGradient44);fill-opacity:1;fill-rule:nonzero;stroke:none"
             id="path46" /></g></g><g
         id="g48"><g
           id="g50"
           clip-path="url(#clipPath54)"><path
             d="m 11592.6,6505.2 v 80 c 615.2,0 1194.7,201.3 1675.9,582.3 l 49.7,-62.7 C 12822.7,6712.5 12226,6505.2 11592.6,6505.2"
             style="fill:url(#linearGradient60);fill-opacity:1;fill-rule:nonzero;stroke:none"
             id="path62" /></g></g><g
         id="g64"><g
           id="g66"
           clip-path="url(#clipPath70)"><path
             d="m 13561.2,6367.7 -44.7,66.2 c 540.6,365.3 964.9,873 1226.9,1468.3 l 73.3,-32.3 c -268.2,-609.1 -702.3,-1128.5 -1255.5,-1502.2"
             style="fill:url(#linearGradient76);fill-opacity:1;fill-rule:nonzero;stroke:none"
             id="path78" /></g></g><path
         d="m 19755.4,14113.4 -1406.5,1550 59.2,53.8 1406.5,-1550 -59.2,-53.8"
         style="fill:#98a6b1;fill-opacity:1;fill-rule:nonzero;stroke:none"
         id="path80" /><g
         id="g82"><g
           id="g84"
           clip-path="url(#clipPath88)"><path
             d="m 8298.45,5999.3 1315.31,-936.1 557.54,523.3 23.4,-9 c 146.8,-56.1 298,-103.5 450,-141.2 l 338.9,1790.2 c -216.7,65.5 -421.1,166.1 -608.1,299.2 -943.05,671.3 -1164.34,1984.6 -493.28,2927.7 671.18,943.2 1984.48,1164.4 2927.68,493.3 651.5,-463.6 984.2,-1266.4 854.5,-2053.9 l 1766.5,-435.2 c 29.3,145.1 50.5,292.8 63.1,439.7 l 2.1,25 714.9,273.5 -268.2,1591.7 -765,24.3 -10.2,22.9 c -148.6,333.2 -342.5,643.1 -576.2,921.1 l -16.2,19.2 311.8,698.3 -1315.3,935.8 -557.6,-523.2 -23.4,9 c -339,129.8 -695.4,211.4 -1059.1,242.5 l -25,2.2 -273.5,715 -1591.7,-268.4 -24.3,-764.9 -22.89,-10.3 c -333.82,-148.8 -643.73,-342.7 -921.09,-576.2 l -19.18,-16.1 -698.36,311.7 -935.83,-1315.3 523.26,-557.6 -8.96,-23.4 c -129.82,-339 -211.43,-695.2 -242.57,-1058.8 l -2.14,-25 -715.08,-273.8 268.17,-1591.7 765.2,-24.2 10.22,-22.9 c 148.74,-333.5 342.6,-643.3 576.22,-920.9 l 16.13,-19.2 z m 1322.31,-1039.2 -1422.05,1012 318.04,712.4 c -225.93,272 -414.74,573.7 -561.67,897.7 l -780.66,24.7 -289.94,1720.9 729.51,279.3 c 32.56,354.1 112.04,701 236.44,1032.2 l -533.82,568.8 1011.76,1422.1 712.48,-318.1 c 271.76,225.8 573.64,414.7 897.89,561.7 l 24.75,780.4 1720.91,290.2 279,-729.5 c 354.2,-32.5 701.3,-112 1032.4,-236.5 l 568.9,533.9 1422,-1011.8 -318,-712.5 c 226,-272.3 414.8,-574.1 561.7,-897.8 l 780.4,-24.8 289.9,-1720.9 -729.2,-279 c -14.4,-155.7 -38.1,-311.9 -70.7,-465 l -8.6,-40.4 -1919.8,473 6.8,37 c 141.1,768.9 -179.1,1558.4 -815.7,2011.4 -907.2,645.6 -2170.5,432.7 -2816.1,-474.5 -645.49,-907.1 -432.63,-2170.4 474.5,-2816.2 189.6,-134.9 397.8,-235 618.6,-297.6 l 35.3,-10 -368.1,-1944.2 -40.8,9.6 c -161,38.1 -321.4,86.9 -477.3,145.3 l -568.84,-533.8"
             style="fill:url(#linearGradient94);fill-opacity:1;fill-rule:nonzero;stroke:none"
             id="path96" /></g></g><g
         id="g98"><g
           id="g100"
           clip-path="url(#clipPath104)"><path
             d="m 9914.88,10430.2 c 159.92,224.9 356.92,408 576.72,546.7 l -940.55,1648.3 c -175.79,-105.7 -344.34,-225.7 -503.7,-359.8 l -705.29,314.9 -486.89,-684.3 -486.88,-684.3 528.53,-563.3 c -133.18,-347.8 -214.2,-708 -245.15,-1069.7 l -722.31,-276.5 139.69,-828.2 139.49,-828.1 772.74,-24.5 c 148.1,-331.7 342.44,-645.5 582.24,-930.4 l -314.9,-705.3 684.28,-487.2 684.46,-486.9 563.14,528.5 c 162.8,-62.1 328.3,-113.1 495.7,-152.5 l 353.5,1867.1 c -220.3,62.3 -433.8,163.2 -631,303.5 -926.57,659.6 -1143.26,1945.4 -483.82,2872 z m 6201.62,-431.9 -139.6,828.2 -772.8,24.5 c -147.9,331.7 -342.6,645.6 -582,930.6 l 314.9,705.2 -1368.8,974 -563.1,-528.5 c -142.2,54.4 -286.4,100.1 -432,137.2 l -348,-1873.1 c 195.7,-63 385.2,-156.8 561.6,-282.4 673.4,-479 971.9,-1288.7 832,-2051.1 l 1843,-454 c 34.2,160.7 58.3,322.7 72.2,485 l 722,276.3 -139.4,828.1"
             style="fill:url(#linearGradient110);fill-opacity:1;fill-rule:nonzero;stroke:none"
             id="path112" /></g></g><path
         d="m 11293.3,2046.3 h -85.2 v 3873.2 h 85.2 V 2046.3"
         style="fill:#706865;fill-opacity:1;fill-rule:nonzero;stroke:none"
         id="path114" /><path
         d="m 9379.03,2046.3 h -85.2 v 3873.2 h 85.2 V 2046.3"
         style="fill:#706865;fill-opacity:1;fill-rule:nonzero;stroke:none"
         id="path116" /><path
         d="M 11413,2685.5 H 9120.73 c -141.26,0 -255.77,114.6 -255.77,255.8 v 4340.6 c 0,141.3 114.51,255.8 255.77,255.8 H 11413 c 141.3,0 255.8,-114.5 255.8,-255.8 V 2941.3 c 0,-141.2 -114.5,-255.8 -255.8,-255.8"
         style="fill:#bdafaa;fill-opacity:1;fill-rule:nonzero;stroke:none"
         id="path118" /><path
         d="M 11339.2,2875.1 H 9194.6 c -139.57,0 -252.7,113.2 -252.7,252.7 v 4079 c 0,139.6 113.13,252.7 252.7,252.7 h 2144.6 c 139.5,0 252.7,-113.1 252.7,-252.7 v -4079 c 0,-139.5 -113.2,-252.7 -252.7,-252.7"
         style="fill:#ffffff;fill-opacity:1;fill-rule:nonzero;stroke:none"
         id="path120" /><path
         d="m 10684.6,7385.8 h -835.47 v 188.7 h 835.47 v -188.7"
         style="fill:#706865;fill-opacity:1;fill-rule:nonzero;stroke:none"
         id="path122" /><path
         d="m 7545.83,14335.6 c -377.24,268.4 -465.43,791.8 -196.98,1169.1 268.46,377.2 791.89,465.4 1169.12,197 377.25,-268.5 465.43,-791.9 196.98,-1169.2 -268.45,-377.2 -791.89,-465.4 -1169.12,-196.9 z m 1990.69,108.1 c 54.19,141.5 87.16,288.2 99.81,435.5 l 293.96,112.5 -56.81,337.2 -56.81,337.1 -314.58,10 c -60.23,135.1 -139.42,262.8 -237.01,378.8 l 128.21,287.1 -278.59,198.3 -278.57,198.2 -229.31,-215.2 c -141.54,54.2 -288.17,87.2 -435.52,99.8 l -112.5,294 -337.16,-56.8 -337.16,-56.8 -9.98,-314.6 c -135.06,-60.2 -262.8,-139.4 -378.77,-237 l -287.17,128.2 -198.24,-278.6 -198.24,-278.6 215.21,-229.3 c -54.2,-141.5 -87.17,-288.2 -99.82,-435.5 l -293.95,-112.5 56.8,-337.2 56.8,-337.1 314.58,-10 c 60.25,-135.1 139.44,-262.8 237.02,-378.8 l -128.21,-287.1 278.59,-198.3 278.57,-198.2 229.31,215.2 c 141.54,-54.2 288.17,-87.2 435.52,-99.8 l 112.5,-294 337.16,56.8 337.17,56.8 9.97,314.6 c 135.07,60.2 262.8,139.4 378.77,237 l 287.17,-128.2 198.24,278.6 198.24,278.6 -215.2,229.3"
         style="fill:#ffb955;fill-opacity:1;fill-rule:nonzero;stroke:none"
         id="path124" /><path
         d="m 9989.09,5592.1 23.41,-8.9 c 61.7,-23.6 126.5,-38.5 192.7,-44.2 l 24.9,-2.1 49.9,-130.2 250.5,42.2 4.4,139.3 22.9,10.2 c 60.7,27.1 117.1,62.4 167.6,104.9 l 19.2,16.1 127.2,-56.8 147.3,207.1 -95.3,101.5 8.9,23.4 c 23.6,61.7 38.5,126.5 44.2,192.7 l 2.1,25 130.2,49.8 -42.2,250.6 -139.3,4.4 -10.2,22.9 c -27.1,60.6 -62.4,117 -104.9,167.5 l -16.1,19.2 56.8,127.2 -207.1,147.3 -101.5,-95.3 -23.4,9 c -61.7,23.6 -126.5,38.4 -192.7,44.1 l -25,2.2 -49.8,130.2 -250.6,-42.3 -4.38,-139.3 -22.9,-10.2 c -60.67,-27.1 -117.05,-62.3 -167.56,-104.8 l -19.17,-16.2 -127.18,56.8 -147.33,-207 95.32,-101.6 -8.97,-23.4 c -23.61,-61.7 -38.47,-126.5 -44.15,-192.7 l -2.15,-24.9 -130.2,-49.9 42.21,-250.5 139.35,-4.4 10.21,-22.9 c 27.06,-60.7 62.34,-117.1 104.84,-167.6 l 16.13,-19.2 -56.78,-127.2 207.03,-147.3 z m 239.51,-275.2 -55.4,145 c -56.5,6.6 -112,19.4 -165.6,37.9 l -113.1,-106.1 -313.75,223.2 63.23,141.7 c -35.07,44.5 -65.26,92.8 -90.09,144 l -155.15,4.9 -63.98,379.8 144.97,55.4 c 6.68,56.5 19.4,112 37.94,165.6 l -106.15,113.1 223.28,313.8 141.65,-63.3 c 44.5,35.1 92.76,65.3 143.98,90.1 l 4.92,155.2 379.75,63.9 55.5,-144.9 c 56.5,-6.7 112,-19.4 165.5,-38 l 113.1,106.2 313.8,-223.3 -63.2,-141.7 c 35,-44.5 65.2,-92.7 90.1,-143.9 l 155.1,-5 64,-379.7 -145,-55.5 c -6.7,-56.5 -19.4,-112 -37.9,-165.5 l 106.1,-113.2 -223.2,-313.7 -141.7,63.2 c -44.5,-35 -92.8,-65.2 -144,-90.1 l -4.9,-155.1 -379.8,-64"
         style="fill:#cfcfcf;fill-opacity:1;fill-rule:nonzero;stroke:none"
         id="path126" /><path
         d="m 10470.4,6536 c -59.8,42.4 -130.1,64.9 -203.2,64.9 v 0 c -50.4,0 -101.2,-11.1 -147,-32 l -33.2,72.7 c 56.1,25.7 118.4,39.3 180.2,39.3 v 0 c 89.8,0 176.1,-27.6 249.5,-79.7 z m -452.6,-639.7 -1.8,1.2 c -113.12,80.6 -180.97,212.2 -180.97,351.9 0,13.4 0.63,26.9 1.89,40.3 l 79.65,-7.5 c -1.03,-10.9 -1.54,-21.9 -1.54,-32.8 0,-113.9 55.28,-221.1 147.87,-287 z m 429.6,-39.6 -33.4,72.7 c 55.6,25.5 103.8,65.5 139.5,115.6 36,50.6 58.1,109.9 63.7,171.3 l 79.7,-7.3 c -7,-75.5 -34,-148.3 -78.2,-210.4 -43.8,-61.5 -103.1,-110.6 -171.3,-141.9"
         style="fill:#cfcfcf;fill-opacity:1;fill-rule:nonzero;stroke:none"
         id="path128" /><path
         d="m 10854,5118.7 c -51.7,0 -102.7,-24.2 -134.9,-69.4 -52.8,-74.3 -35.4,-177.7 38.9,-230.5 v 0 c 35.9,-25.6 79.7,-35.7 123.2,-28.3 43.6,7.3 81.6,31.2 107.2,67.1 52.9,74.3 35.5,177.7 -38.8,230.5 -29,20.7 -62.5,30.6 -95.6,30.6 z m -0.7,-410.6 c -50.6,0 -99.7,15.6 -141.7,45.5 v 0 c -110.2,78.4 -136.1,231.9 -57.7,342.1 78.4,110.2 231.9,136 342.1,57.6 110.2,-78.4 136,-231.9 57.6,-342.1 -38,-53.3 -94.5,-88.7 -159.1,-99.6 -13.8,-2.3 -27.6,-3.5 -41.2,-3.5 z m -149.4,-76.7 23.4,-9 c 30.7,-11.8 62.9,-19.1 95.8,-22 l 24.9,-2.1 24.8,-64.8 100.6,16.9 2.2,69.4 22.9,10.2 c 30.1,13.4 58.1,31 83.2,52.1 l 19.2,16.1 63.3,-28.2 59.1,83 -47.4,50.6 8.9,23.4 c 11.8,30.6 19.2,62.8 22,95.8 l 2.1,24.9 64.8,24.8 -16.9,100.5 -69.3,2.2 -10.3,22.9 c -13.4,30.2 -30.9,58.2 -52.1,83.3 l -16.1,19.2 28.3,63.3 -83.1,59.1 -50.5,-47.4 -23.5,8.9 c -30.6,11.8 -62.8,19.1 -95.7,22 l -25,2.1 -24.8,64.8 -100.5,-16.9 -2.2,-69.4 -22.9,-10.2 c -30.1,-13.4 -58.2,-31 -83.3,-52.1 l -19.2,-16.1 -63.3,28.2 -59.1,-83 47.5,-50.6 -9,-23.4 c -11.7,-30.6 -19.1,-62.8 -21.9,-95.7 l -2.2,-25 -64.8,-24.8 17,-100.5 69.3,-2.2 10.2,-22.9 c 13.5,-30.2 31,-58.2 52.1,-83.3 l 16.2,-19.2 -28.3,-63.3 83.1,-59.1 z m 117.6,-187.7 -30.5,80 c -23.2,3.3 -46,8.6 -68.3,15.6 l -62.3,-58.6 -189.9,135.1 34.9,78.1 c -13.9,18.7 -26.3,38.6 -37.1,59.4 l -85.6,2.7 -38.6,229.7 79.9,30.6 c 3.3,23.2 8.6,46 15.6,68.2 l -58.5,62.4 135,189.8 78.2,-34.9 c 18.7,14 38.5,26.4 59.3,37.1 l 2.7,85.6 229.7,38.7 30.6,-80 c 23.2,-3.3 46,-8.5 68.2,-15.6 l 62.4,58.5 189.8,-135 -34.9,-78.1 c 14,-18.7 26.4,-38.6 37.2,-59.4 l 85.5,-2.7 38.7,-229.7 -79.9,-30.6 c -3.4,-23.2 -8.6,-46 -15.7,-68.2 l 58.6,-62.4 -135.1,-189.8 -78.1,34.9 c -18.7,-14 -38.6,-26.4 -59.3,-37.1 l -2.7,-85.6 -229.8,-38.7"
         style="fill:#cfcfcf;fill-opacity:1;fill-rule:nonzero;stroke:none"
         id="path130" /><path
         d="m 8775.42,4192.7 c 0,0 19.2,-31.5 21.62,-57.2 1.9,-20.3 19.01,-50.7 26.42,-67.5 7.41,-16.8 31.25,-92.9 32.1,-112.6 0.35,-8.1 -17.69,-59.1 -15.14,-75.4 2.55,-16.3 11.89,-48.6 -2.75,-50.8 -14.65,-2.1 -31.25,24.4 -31.25,24.4 0,0 1.39,-15 -11,-20.8 -24.1,-11.1 -36.85,-1.3 -36.85,-1.3 0,0 -8.89,-16.5 -20.04,-18.7 -24.6,-4.9 -36.65,4.9 -36.65,4.9 0,0 -10.83,-9.2 -27.83,-8.9 -21.74,0.4 -30.87,19.2 -30.87,19.2 0,0 -27.54,-5.6 -35.52,7.3 -7.99,12.8 -6.61,26.5 -9.91,38.1 -3.31,11.7 -0.81,116.8 34.9,192.5 35.71,75.7 -9.09,149.5 -9.09,149.5 l 151.86,-22.7"
         style="fill:#eea886;fill-opacity:1;fill-rule:nonzero;stroke:none"
         id="path132" /><path
         d="m 8810.3,3863.4 c 0,0 2.44,94.3 -22.38,114.4 -24.82,20.1 -27.64,-13.9 -27.64,-13.9 0,0 3.37,33.6 -23.76,38.1 -27.13,4.6 -28.26,-35.4 -28.26,-35.4 0,0 -4.45,26 -32.94,20.6 -28.5,-5.3 -21.71,-38.4 -21.71,-38.4 0,0 -27.22,32.5 -44.87,1.3 -29.81,-52.7 -1.08,-114.8 -1.08,-114.8 0,0 8.4,-14.3 35.52,-7.3 0,0 18.13,-36.6 58.7,-10.3 0,0 41.55,-22.9 56.69,13.8 0,0 45.79,-21.8 51.73,31.9"
         style="fill:#db9c7c;fill-opacity:1;fill-rule:nonzero;stroke:none"
         id="path134" /><path
         d="m 9095.36,5551.4 c 0,0 -161.46,-538.2 -216.01,-736.6 -17.12,-62.3 -58.52,-656.8 -65.83,-680.8 -7.3,-23.9 -212.11,-56.7 -212.11,-56.7 0,0 24.82,743.7 27.14,784.3 2.31,40.6 225.96,871.1 291.01,900.7 48.73,22.2 74.45,3.9 135.86,-41.7 86.17,-64 39.94,-169.2 39.94,-169.2"
         style="fill:#323657;fill-opacity:1;fill-rule:nonzero;stroke:none"
         id="path136" /><path
         d="m 10687.9,6277.7 -18,27.5 369.6,241.9 18,-27.5 -369.6,-241.9"
         style="fill:#4da8f2;fill-opacity:1;fill-rule:nonzero;stroke:none"
         id="path138" /><path
         d="m 11096.9,6408 c 0,0 -3.5,-20.9 -9.5,-29.3 0,0 -12.1,-14.4 -20.1,-25.2 -2.5,-3.4 -4.6,-6.5 -5.8,-8.6 -4.9,-8.8 -12.9,-29.5 -30.5,-47.4 -17.6,-17.9 -86.2,-74.6 -86.2,-74.6 l -58.7,49.8 -61,27.4 c 0,0 34.1,148.4 48.6,166.9 1.4,1.8 2.9,3.5 4.4,5.1 13.8,14.5 30.1,19.5 38.2,26.3 3,2.4 34.4,25 45.6,22.1 15.5,-4 24.6,-13.1 28.2,-23.5 0,0 30,-9.2 41.7,-26.9 0,0 28,-7.6 36.3,-33.7 0,0 27.6,-10.9 28.8,-28.4"
         style="fill:#efaa88;fill-opacity:1;fill-rule:nonzero;stroke:none"
         id="path140" /><path
         d="m 8964.35,1877.1 c 0,0 -14.72,-102.1 -16.55,-117.5 -1.85,-15.3 -163.73,9.1 -163.73,9.1 l -13.11,121.6 c 0,0 173.16,1.2 193.39,-13.2"
         style="fill:#424773;fill-opacity:1;fill-rule:nonzero;stroke:none"
         id="path142" /><path
         d="m 8949.52,1772.6 c 0,0 51.29,-61.5 100.9,-88.4 49.6,-26.8 127.56,-37.4 156.89,-65.2 21.18,-20 77.13,-106.4 -128.91,-104.6 -206.03,1.7 -305.37,-12.2 -327.45,20.9 -22.07,33.1 31.95,244.2 31.95,244.2 0,0 48.79,-17.5 166.62,-6.9"
         style="fill:#292c47;fill-opacity:1;fill-rule:nonzero;stroke:none"
         id="path144" /><path
         d="m 10124.3,1877.1 c 0,0 -14.7,-102.1 -16.6,-117.5 -1.8,-15.3 -163.7,9.1 -163.7,9.1 l -13.11,121.6 c 0,0 173.11,1.2 193.41,-13.2"
         style="fill:#424773;fill-opacity:1;fill-rule:nonzero;stroke:none"
         id="path146" /><path
         d="m 10109.4,1772.6 c 0,0 51.3,-61.5 100.9,-88.4 49.7,-26.8 232.2,-48.8 261.5,-76.6 21.2,-20.1 56.4,-100.8 -233.5,-93.2 -205.9,5.4 -305.34,-12.2 -327.42,20.9 -22.07,33.1 31.95,244.2 31.95,244.2 0,0 45.96,-18.7 166.57,-6.9"
         style="fill:#292c47;fill-opacity:1;fill-rule:nonzero;stroke:none"
         id="path148" /><path
         d="m 9098.4,4502.1 c 0,0 -152.11,-241.6 -140.76,-460.1 11.35,-218.5 -55.15,-457 -78.01,-685.2 -25.46,-254.4 -129.71,-856.7 -133.5,-992.8 -3.78,-136 16.18,-570.6 16.18,-570.6 l 208.68,-4.8 c 0,0 175.27,1053 220.67,1160.4 45.39,107.5 270.49,873.4 278.06,959.3 7.56,86 -371.32,593.8 -371.32,593.8"
         style="fill:#292c47;fill-opacity:1;fill-rule:nonzero;stroke:none"
         id="path150" /><path
         d="m 9899.15,4469.4 c 0,0 114.65,-598.8 129.75,-732.5 15.1,-133.7 25.2,-647 32.8,-730.6 7.6,-83.6 70.7,-1091 90.8,-1217.7 h -266.81 c 0,0 -204.8,734.2 -204.8,1081.6 0,347.4 -158.22,755.2 -260.35,984.4 -102.13,229.2 -335.91,234.7 -398.69,659.9 0,0 792.3,89.8 877.3,-45.1"
         style="fill:#292c47;fill-opacity:1;fill-rule:nonzero;stroke:none"
         id="path152" /><path
         d="m 9352.23,6534 c 0,0 204.17,76.2 298.31,-79.2 94.14,-155.4 85.07,-466.5 -17.84,-504.8 -102.92,-38.3 -257.51,-18.2 -310.2,79 -52.69,97.3 -100.26,237.8 -97.97,331.8 2.28,94 74.1,146.1 127.7,173.2"
         style="fill:#eea886;fill-opacity:1;fill-rule:nonzero;stroke:none"
         id="path154" /><path
         d="m 9610.53,5942.9 c 0,0 -8.49,-55.1 5.55,-82.3 14.04,-27.1 -264.51,-27.9 -264.51,-27.9 0,0 -22.62,147.8 -65.49,272.5 -42.86,124.8 324.45,-162.3 324.45,-162.3"
         style="fill:#eea886;fill-opacity:1;fill-rule:nonzero;stroke:none"
         id="path156" /><path
         d="m 9286.08,6105.2 c 0,0 19.23,-31.7 97.7,-19.4 78.49,12.3 174.22,116.8 206.99,128.2 32.77,11.5 33.08,30.7 33.08,30.7 l 20.51,-29.9 34.81,-2.2 c 0,0 -31.74,93.4 16.14,131.4 47.89,38.1 -49.7,302.4 -301.38,214.4 0,0 -193.31,-53.3 -186.28,-163.2 7.03,-110 35.18,-235.2 78.43,-290"
         style="fill:#d88a51;fill-opacity:1;fill-rule:nonzero;stroke:none"
         id="path158" /><path
         d="m 9632.61,5863.9 c 0,0 -0.88,51.9 -24.39,56.8 -23.52,5 -259.58,27.7 -288.45,16.4 v -60.5 c 0,0 55.62,-34.2 312.84,-12.7"
         style="fill:#e2d2ca;fill-opacity:1;fill-rule:nonzero;stroke:none"
         id="path160" /><path
         d="m 9618.65,6284.7 c -4.4,18.4 -51.29,71.1 -69.25,14.7 -17.95,-56.4 27.13,-132.3 52.27,-125.8 25.15,6.5 28.14,64.4 16.98,111.1"
         style="fill:#eea886;fill-opacity:1;fill-rule:nonzero;stroke:none"
         id="path162" /><path
         d="m 10023.1,5785.3 c -161.88,21.4 -390.49,78.6 -390.49,78.6 l -312.85,12.7 c 0,0 -287.13,-63.2 -400.2,-114.3 -10.73,-4.8 -10.78,-256.1 -40.21,-322 l 93.75,-197.8 c 0,0 54.15,-391.8 65.39,-566 5.17,-80 -111.69,-750.1 -111.69,-750.1 0,0 125.21,-36.9 338.73,-60.4 213.52,-23.5 746.97,8.5 750.37,33.7 3.4,25.2 -103.32,939.1 -108.04,986.4 -7.25,72.6 25.04,458.6 25.04,458.6 49.29,38.2 482.1,239.2 600.2,343.9 31.6,28 165,157.9 202.9,202.7 134.3,158.8 244.4,295 257.8,324.3 15.2,16.7 -150.5,105.8 -165.1,110.6 -12.8,4.3 -189.7,-232.3 -259.6,-308 -31.1,-33.7 -160.6,-127.9 -160.6,-127.9 0,0 -284.2,-110.8 -385.4,-105"
         style="fill:#323657;fill-opacity:1;fill-rule:nonzero;stroke:none"
         id="path164" /><path
         d="m 9294.09,6515.6 c 0,0 -260.34,-20.3 -8.01,-410.4 l 8.01,410.4"
         style="fill:#d88a51;fill-opacity:1;fill-rule:nonzero;stroke:none"
         id="path166" /><path
         d="m 11057.5,6519.6 21.3,32.6 -39.3,-5.1 z"
         style="fill:#dfe1e8;fill-opacity:1;fill-rule:nonzero;stroke:none"
         id="path168" /><path
         d="m 18378.5,15642 c 113.1,0 205.1,92 205.1,205.1 h -48.3 c 0,-86.5 -70.3,-156.8 -156.8,-156.8 -86.5,0 -156.8,70.3 -156.8,156.8 0,86.5 70.3,156.8 156.8,156.8 h 24.2 v 2483.2 h -48.3 v -2436.3 c -101.8,-12 -181,-98.7 -181,-203.7 0,-113.1 92,-205.1 205.1,-205.1"
         style="fill:#385369;fill-opacity:1;fill-rule:nonzero;stroke:none"
         id="path170" /><path
         d="m 18322.9,16061.3 h 115.5 v 1172.6 h -115.5 v -1172.6"
         style="fill:#98a6b1;fill-opacity:1;fill-rule:nonzero;stroke:none"
         id="path172" /><path
         d="m 17003.7,14113.4 -59.2,53.8 1437.3,1582.2 52.6,-61.1 -1430.7,-1574.9"
         style="fill:#98a6b1;fill-opacity:1;fill-rule:nonzero;stroke:none"
         id="path174" /><g
         id="g176"><g
           id="g178"
           clip-path="url(#clipPath182)"><path
             d="m 20750.3,12592.6 c 164.1,123.2 317,258 457.9,402.9 l -1318,1366 c -197.5,-214.8 -444.1,-390.9 -731.7,-509.3 -828,-340.8 -1749.8,-102.7 -2316.1,527.1 l -1293.6,-1392 c 136.5,-139.5 282.5,-267.7 436.6,-384 l -150.5,-758.4 775.1,-323.1 775.3,-322.9 432.3,640.9 c 359.6,-51.5 728.8,-53.8 1097.6,-2.9 l 429.3,-642.2 776.6,319.9 776.6,319.8 -147.4,758.2"
             style="fill:url(#linearGradient188);fill-opacity:1;fill-rule:nonzero;stroke:none"
             id="path190" /></g></g><path
         d="M 16908.2,7619.5 H 15615.4 V 6485.1 l 197.4,197.4 h 1095.4 v 937"
         style="fill:#ffce55;fill-opacity:1;fill-rule:nonzero;stroke:none"
         id="path192" /><path
         d="m 15629.1,5493.7 c 0,0 27.9,69.2 32.5,79.6 4.6,10.4 31.5,27.5 64.1,44.3 32.5,16.9 84.1,25 89.6,22 5.6,-3.1 12.6,-3.6 19.7,-18.2 7.1,-14.6 5.1,-30.9 5.1,-30.9 0,0 17.3,-13.8 13.3,-33.7 0,0 15.6,-13.7 7.4,-35.5 0,0 14.9,-13.9 7.6,-29.2 0,0 -26.9,-17.1 -35.1,-26.3 -8.1,-9.2 -66.6,-41 -127.3,-62.8 0,0 -64.3,-1.2 -76.9,90.7"
         style="fill:#eea886;fill-opacity:1;fill-rule:nonzero;stroke:none"
         id="path194" /><path
         d="m 15728.1,5531.4 c 0,0 0.7,-37.4 -4.4,-48.1 -5.2,-10.6 76,-34.2 76,-34.2 0,0 -26,82 -71.6,82.3"
         style="fill:#cf8c6c;fill-opacity:1;fill-rule:nonzero;stroke:none"
         id="path196" /><path
         d="m 14214.3,1867.7 35.4,110.4 149.9,-24.3 -22.4,-99.5 -162.9,13.4"
         style="fill:#555c94;fill-opacity:1;fill-rule:nonzero;stroke:none"
         id="path198" /><path
         d="m 15442.9,1880.8 8.4,-60.7 164.1,27.4 -8.7,90.6 -163.8,-57.3"
         style="fill:#555c94;fill-opacity:1;fill-rule:nonzero;stroke:none"
         id="path200" /><path
         d="m 15087.5,3580.3 c 0,0 -24.1,-131.7 -52.2,-277.8 -4.8,-25.5 -9.8,-51.4 -14.9,-77.1 -27.4,-140.9 -55.1,-276.4 -65.3,-304.4 -23.3,-63.7 -525.7,-984.4 -525.7,-984.4 0,0 -205.5,15.7 -213.2,42.1 0,0 421.2,999.6 418.8,1036.1 -2.3,36.4 51.5,1061.2 51.5,1061.2 0,0 389.9,-436.5 401,-495.7"
         style="fill:#354c70;fill-opacity:1;fill-rule:nonzero;stroke:none"
         id="path202" /><path
         d="m 15317.1,4134.6 c 0,0 196.6,-1006.7 213.4,-1083.8 16.8,-77.1 91.3,-1108.3 91.3,-1108.3 0,0 -44.2,-91.1 -207.4,-56.8 0,0 -222.5,1108 -241.2,1145.1 -72.8,144.1 -430,842.2 -464.7,941.8 -34.6,99.6 -24.4,215.9 -24.4,215.9 0,0 265.4,149.1 633,-53.9"
         style="fill:#354c70;fill-opacity:1;fill-rule:nonzero;stroke:none"
         id="path204" /><path
         d="m 15234.5,5438.5 c 0,0 86.2,-214.9 107.9,-208.6 21.6,6.4 269.5,297.4 269.5,297.4 0,0 113.3,-141.5 98.2,-157.8 -21.2,-22.6 -313.9,-509.2 -354.1,-500.4 -40.3,8.8 -220.3,306.2 -220.3,306.2 0,0 -10.1,224.4 98.8,263.2"
         style="fill:#deb135;fill-opacity:1;fill-rule:nonzero;stroke:none"
         id="path206" /><path
         d="m 14865.7,5849 c 0,0 223.6,-170.9 285.3,-238.7 61.7,-67.8 232.1,-348.9 219.8,-433.5 -47.1,-324.2 -69.5,-600.5 -70.9,-821.7 -1.2,-192.7 60.2,-241.9 21.9,-244.7 -43.9,-3.3 -606.6,-207.2 -689.8,-232 0,0 54.5,678.5 82.2,756.8 27.6,78.3 -88.5,898.8 151.5,1213.8"
         style="fill:#f2c344;fill-opacity:1;fill-rule:nonzero;stroke:none"
         id="path208" /><path
         d="m 16305.8,6173.2 50.2,-252.8 50.2,-252.8 c 0,0 -287.1,89.9 -612.9,25.2 l -22.1,111.5 -22.3,112.1 c 325.8,64.7 556.9,256.8 556.9,256.8"
         style="fill:#d9d0c4;fill-opacity:1;fill-rule:nonzero;stroke:none"
         id="path210" /><path
         d="m 15451.3,1820.1 c 0,0 123.9,24 128.2,27.8 4.3,3.7 30.9,52.6 50.1,44.1 19.1,-8.5 19.4,-68.1 38.1,-78.2 18.7,-10 166.5,-109.9 184.7,-128.1 18.2,-18.2 130.1,-7.5 143,-39.1 12.8,-31.6 13.9,-106.2 -153.1,-88.6 -167.1,17.5 -357.8,-9.7 -393.7,10.1 -36,19.7 -8.8,203.9 2.7,252"
         style="fill:#ffb355;fill-opacity:1;fill-rule:nonzero;stroke:none"
         id="path212" /><path
         d="m 14212.3,1870.4 c 0,0 126.1,3.9 131,6.9 4.9,3 38.9,47.1 56.5,35.6 17.5,-11.5 8.2,-70.4 25.1,-83.3 16.9,-12.9 146.8,-135.2 161.8,-156 15,-20.9 127.3,-28.3 134.9,-61.5 7.6,-33.2 -3.3,-107.1 -165.3,-63 -162.1,44 -354.7,47.7 -387,73 -32.4,25.2 24,202.7 43,248.3"
         style="fill:#ffb355;fill-opacity:1;fill-rule:nonzero;stroke:none"
         id="path214" /><path
         d="m 15191.6,4087.9 c 0,0 15.1,-61.3 39.3,-74.6 24.2,-13.2 -112.8,-144.3 -112.8,-144.3 0,0 -55.6,121.5 -54.1,133.7 1.5,12.3 127.6,85.2 127.6,85.2"
         style="fill:#eea987;fill-opacity:1;fill-rule:nonzero;stroke:none"
         id="path216" /><path
         d="m 14766.4,5583.9 c 0,0 -160.5,-763.3 -173.7,-841.5 -12.4,-74 470.5,-780.2 470.5,-780.2 l 160.6,95.2 c 0,0 -389.7,708.6 -389.1,741 0.6,32.3 187.1,647.7 187.1,647.7 0,0 77.9,134 -60.4,199.1 -138.3,65 -195,-61.3 -195,-61.3"
         style="fill:#ffd255;fill-opacity:1;fill-rule:nonzero;stroke:none"
         id="path218" /><path
         d="m 15285.8,4035.3 c 0,0 52.2,-259.6 49,-339.1 -3.3,-79.5 -299.6,125.1 -284.6,204.2 l 235.6,134.9"
         style="fill:#3c5780;fill-opacity:1;fill-rule:nonzero;stroke:none"
         id="path220" /><path
         d="m 14865.7,5849 c 0,0 407.3,-444.9 382.2,-395.6 -89.4,175.9 -151.9,205.6 -150.6,238.4 1,25.1 9.2,97.6 10.8,122.1 3.2,46.6 8.3,85.1 8.3,85.1 0,0 -202.2,284 -193.3,187.3 8.9,-96.8 -57.4,-237.3 -57.4,-237.3"
         style="fill:#eea886;fill-opacity:1;fill-rule:nonzero;stroke:none"
         id="path222" /><path
         d="m 15253.6,6372.7 c 0,0 56,-131.5 56.8,-162.2 0.8,-30.8 -7,-54.4 -2.3,-89.8 5,-36.7 35.7,-113.8 32,-135.1 -4.6,-25.7 -58.8,-12.3 -66.3,-54.7 -7.5,-42.4 -46.9,-122.1 -66.5,-123.7 -50.4,-4.2 -243.5,74.6 -255.8,115 -12.3,40.4 -82.2,265.6 -104,308.4 -21.8,42.9 340.2,277.6 373.1,209.9 33,-67.8 33,-67.8 33,-67.8"
         style="fill:#eea886;fill-opacity:1;fill-rule:nonzero;stroke:none"
         id="path224" /><path
         d="m 14761.4,6275.2 c -25.6,111.5 102.7,125.2 102.7,125.2 0,0 83.4,97.2 283.2,85.7 199.8,-11.6 169.3,-272.3 169.3,-272.3 0,0 -138.2,20.7 -198.3,5.5 0,0 -7.4,-111.3 -0.9,-138.9 l -75.3,6.7 c 0,0 8.4,98.8 -27.7,103.5 -36.2,4.6 -48.4,-209.2 -115.7,-256.3 0,0 -0.7,15.1 -9.1,29.9 v 0 0 c -13.5,23.5 -34.4,63 -52.4,109.1 -29.4,64.6 -62.7,144.7 -75.8,201.9"
         style="fill:#fccca2;fill-opacity:1;fill-rule:nonzero;stroke:none"
         id="path226" /><path
         d="m 15064.5,6166.7 c 0,0 -28,75.4 -94.2,26.5 -48.2,-35.6 1.3,-162.9 48.2,-162.3 46.9,0.6 66,69.9 46,135.8"
         style="fill:#eea886;fill-opacity:1;fill-rule:nonzero;stroke:none"
         id="path228" /><path
         d="m 14940.6,5957.4 c 0,0 9.9,-40 20.7,-49.4 10.8,-9.3 61.5,-50.5 149.5,-78.1 l -8.6,-79.9 c 0,0 -170.4,66.9 -161.6,207.4"
         style="fill:#c48a6f;fill-opacity:1;fill-rule:nonzero;stroke:none"
         id="path230" /><path
         d="m 15838.7,5416.3 28.8,13.7 -130.3,276.4 -73,-34.4 110.4,-234.3 c 12.3,-26.1 38.1,-33.7 64.1,-21.4"
         style="fill:#e8734d;fill-opacity:1;fill-rule:nonzero;stroke:none"
         id="path232" /><path
         d="m 15806.6,5635.5 c 0,0 -81.5,-44.8 -75.9,-58.8 5.5,-14 16.1,-15.8 16.1,-15.8 l -25.2,-33.6 c 0,0 -4.1,-31.7 31.6,-26.9 0,0 -6.9,-29.2 27,-20.5 0,0 4.1,-21.3 20.5,-20 16.4,1.2 67.7,32.2 67.7,32.2 0,0 7.9,11.4 -7.6,29.2 0,0 9.1,20.4 -7.4,35.5 0,0 4.7,17.5 -13.3,33.7 0,0 7.5,39.8 -24.8,49.1 0,0 -5.3,-2.2 -8.7,-4.1"
         style="fill:#db9c7c;fill-opacity:1;fill-rule:nonzero;stroke:none"
         id="path234" /><path
         d="m 15568,5646.2 287.4,53.6 -46.8,235.7 -285.1,-65 44.5,-224.3"
         style="fill:#e8734d;fill-opacity:1;fill-rule:nonzero;stroke:none"
         id="path236" /><path
         d="m 15664,5575 c 0,0 63.8,1.8 99.1,-12.5 7.9,-3.3 15.1,-7.9 15.1,-16.5 0,-8.6 -12.5,-19.6 -40.1,-21.8 -27.6,-2.1 -62.3,-17.6 -62.3,-17.6 0,0 -29,6.1 -11.8,68.4"
         style="fill:#eea886;fill-opacity:1;fill-rule:nonzero;stroke:none"
         id="path238" /><path
         d="m 15035.3,3302.5 c -4.8,-25.5 -9.8,-51.4 -14.9,-77.1 l -163.2,431.9 c 21.6,-43.6 178.1,-354.8 178.1,-354.8"
         style="fill:#293b57;fill-opacity:1;fill-rule:nonzero;stroke:none"
         id="path240" /><path
         d="m 17974.6,4122.1 h 2634.9 l -830.4,-2550.3 77.6,-25.3 865.3,2657.3 h -2806.7 l -857,-2632 77.6,-25.3 838.7,2575.6"
         style="fill:#ffbb55;fill-opacity:1;fill-rule:nonzero;stroke:none"
         id="path242" /><path
         d="m 18871.4,1571.8 -830.5,2550.3 h 2634.9 l 838.7,-2575.6 77.7,25.3 -857.1,2632 h -2806.7 l 865.3,-2657.3 77.7,25.3"
         style="fill:#ffbb55;fill-opacity:1;fill-rule:nonzero;stroke:none"
         id="path244" /><path
         d="m 17729.5,3319 h 3225 v 81.7 h -3225 V 3319"
         style="fill:#ffbb55;fill-opacity:1;fill-rule:nonzero;stroke:none"
         id="path246" /><path
         d="m 17397.2,2432.3 h 3858.5 v 81.7 h -3858.5 v -81.7"
         style="fill:#ffbb55;fill-opacity:1;fill-rule:nonzero;stroke:none"
         id="path248" /><path
         d="m 20723.7,9183.6 c 0,0 18.6,63.9 -9.9,89 -24.2,21.4 -40,66.5 -44.9,80.4 -6.6,18.5 -48,68 -24.7,76.5 23.3,8.5 72.2,-78.2 86,-94.4 13.9,-16.1 29.6,77.8 46,92.7 16.4,14.9 170.4,-19.9 152.2,-83.1 -18.2,-63.2 -79.4,-118.7 -80.4,-130.5 -1,-11.7 -11.5,-46.5 -11.5,-46.5 l -112.8,15.9"
         style="fill:#e09e7f;fill-opacity:1;fill-rule:nonzero;stroke:none"
         id="path250" /><path
         d="m 20768.5,9414 c 0,0 68.6,189.8 83.8,198.6 15.1,8.8 25.2,4.5 19.5,-13.5 -5.7,-18 -61,-185.3 -61,-185.3 0,0 119,211 129.8,220.9 6.4,5.8 26.3,-1.4 24.2,-11.3 -2.1,-10 -108.1,-225.8 -108.1,-225.8 0,0 111.4,196.8 123,202.4 10.1,4.9 26.8,-6.3 19.5,-21.5 -7.3,-15.2 -100.4,-203.6 -100.4,-203.6 0,0 90.1,138.1 102.7,137.1 7.7,-0.6 25.2,-6.1 0.9,-41 -24.4,-34.9 -73.3,-123.3 -73.3,-123.3 l -160.6,66.3"
         style="fill:#e09e7f;fill-opacity:1;fill-rule:nonzero;stroke:none"
         id="path252" /><path
         d="m 18075.7,7460 c 0,0 -60.9,-26.8 -89.5,-1.9 -24.4,21.2 -71.1,31.1 -85.6,34.1 -19.2,4.1 -73.7,38.6 -79,14.4 -5.4,-24.2 87,-61.3 104.8,-72.9 17.8,-11.6 -73.2,-39.5 -85.8,-57.7 -12.7,-18.2 42,-166.3 102.3,-140 60.2,26.3 107.2,94.3 118.7,96.8 11.6,2.5 44.7,17.4 44.7,17.4 l -30.6,109.8"
         style="fill:#e09e7f;fill-opacity:1;fill-rule:nonzero;stroke:none"
         id="path254" /><path
         d="m 17853.2,7385.5 c 0,0 -179.2,-92.9 -185.9,-109.1 -6.8,-16.2 -1.2,-25.6 15.9,-17.6 17.1,8 175.7,84.7 175.7,84.7 0,0 -193.5,-145.5 -202,-157.6 -4.9,-7.1 4.9,-25.9 14.4,-22.5 9.6,3.4 209.7,136.8 209.7,136.8 0,0 -180.5,-136.3 -184.5,-148.5 -3.6,-10.6 9.7,-25.7 23.8,-16.5 14.1,9.2 188.7,126.2 188.7,126.2 0,0 -125.1,-107.4 -122.4,-119.8 1.6,-7.5 9.3,-24.2 40.7,4.5 31.4,28.8 112.7,88.8 112.7,88.8 l -86.8,150.6"
         style="fill:#e09e7f;fill-opacity:1;fill-rule:nonzero;stroke:none"
         id="path256" /><path
         d="m 18011.5,7456.9 95.9,-118.3 c 0,0 617.3,255.1 711.7,343.6 0,0 25,9.6 152.7,110.9 v 0 c 27.3,21.7 54,42.2 78.5,60.1 0,0 6.3,5.7 16.6,14.9 0.1,0 0.1,0.1 0.1,0.1 45.9,41 170.4,152.1 170.4,152.1 0,0 309.6,164.4 183.4,342 0,0 -52.5,47.4 -133,9.1 -80.6,-38.2 -197.1,-138.9 -224.7,-165.4 -27.6,-26.4 -206.5,-179 -216.1,-188.7 -35.7,-36.2 -157.3,-144.5 -220,-191.8 -110.7,-83.4 -615.5,-368.6 -615.5,-368.6"
         style="fill:#323657;fill-opacity:1;fill-rule:nonzero;stroke:none"
         id="path258" /><path
         d="m 19776.7,8712 c -0.1,-0.2 -0.1,-0.2 -0.1,-0.2 -23.6,-50.3 -52.3,-98 -83.9,-138.5 -109.2,-140.1 -363.7,-143.6 -367.4,240.9 -0.7,72.9 8.3,131.9 23,179.8 52.1,170.7 174.5,199.1 174.5,199.1 90.5,5 248.8,-17.4 301.5,-135.2 37.5,-83.7 10.4,-222.4 -47.6,-345.9"
         style="fill:#eea987;fill-opacity:1;fill-rule:nonzero;stroke:none"
         id="path260" /><path
         d="m 19776.7,8712 c -0.1,-0.2 -0.1,-0.2 -0.1,-0.2 0,0 -13,-3.5 -60,91.4 -9.5,19.1 -16.7,5.4 -20.8,13.9 l -74.9,29.2 c 0,0 74.1,123.8 -22.8,158.2 -98.8,35 -249.8,-10.5 -249.8,-10.5 32.3,305.5 174.5,199.1 174.5,199.1 90.5,5 283.9,-0.5 336.6,-118.3 37.5,-83.7 -24.7,-239.3 -82.7,-362.8"
         style="fill:#665249;fill-opacity:1;fill-rule:nonzero;stroke:none"
         id="path262" /><path
         d="m 19680.6,8874.6 c 5.5,25.7 56.3,47.8 77.9,-7.4 21.6,-55.2 -50.6,-113.8 -69.6,-101.7 -19.1,12.1 -17.5,66.6 -8.3,109.1"
         style="fill:#eea987;fill-opacity:1;fill-rule:nonzero;stroke:none"
         id="path264" /><path
         d="m 18707.1,4402 c 0,0 -105,-85.8 -193.3,-104.9 -88.3,-19.1 -134.6,-64.3 -135.3,-116.7 -0.7,-52.4 254.1,-86.9 355.2,-34.1 150.8,78.9 166.1,55.1 182.8,94.5 16.7,39.4 3.3,143.7 4.4,156.3 1.3,15.4 -213.8,4.9 -213.8,4.9"
         style="fill:#2e2626;fill-opacity:1;fill-rule:nonzero;stroke:none"
         id="path266" /><path
         d="m 18714.3,4430.5 c 0,0 -11.5,-42.8 -9.8,-43.7 1.7,-0.9 199,-23 193,11.4 -4.8,27.8 -11.7,58.1 -11.7,58.1 l -171.5,-25.8"
         style="fill:#2e2626;fill-opacity:1;fill-rule:nonzero;stroke:none"
         id="path268" /><path
         d="m 19962,4333.3 c 0,0 -65.4,-98.9 -148.3,-118.8 -81.7,-19.6 -111.9,-50.7 -115.9,-100.1 -4,-49.3 192.7,-113.9 331,-27.3 90.8,57 124.7,53.7 143,89.9 18.2,36.2 4.4,138.1 6.2,149.9 2.3,14.5 -216,6.4 -216,6.4"
         style="fill:#2e2626;fill-opacity:1;fill-rule:nonzero;stroke:none"
         id="path270" /><path
         d="m 19983.9,4369.3 c 0,0 -4.1,-41.6 -2.5,-42.6 1.6,-0.9 183.7,-33.2 182.6,-0.3 -0.9,26.1 -11.5,58.5 -11.5,58.5 l -168.6,-15.6"
         style="fill:#2f6b8c;fill-opacity:1;fill-rule:nonzero;stroke:none"
         id="path272" /><path
         d="m 19231.9,6881.4 c 0,0 -247.6,-614 -318.7,-822.5 -93.7,-274.3 -145.2,-516 -157,-647.5 -14.8,-165.4 -72.8,-946 -83.2,-994.3 -10.4,-48.4 277.8,-32.2 277.8,-32.2 0,0 162.1,984.3 206.3,1160.5 41.1,164 430.3,908.1 467.8,863.3 37.5,-44.7 162.1,-806.4 189.9,-935.8 27.8,-129.4 102.3,-1147.7 102.3,-1147.7 0,0 252.9,-40.6 303.8,0 0,0 -39.9,908 -57.6,1150.6 -6.7,92.4 58.5,1106.5 -97.8,1515.5 -82.6,216.1 -833.6,-109.9 -833.6,-109.9"
         style="fill:#f2c344;fill-opacity:1;fill-rule:nonzero;stroke:none"
         id="path274" /><path
         d="m 19499,8423.1 c 0,0 -214.2,-44 -241.9,-68.6 -30.2,-26.2 -90.4,-291.1 -93.6,-362.6 -3.2,-71.4 15.2,-365.8 45.4,-477 30.1,-111.1 -26.7,-573.7 -45.8,-727.7 0,0 371.3,-168.7 999,-37.2 0,0 -110.2,478.8 -91.7,631.1 23.8,195.1 87.2,622.3 87.2,622.3 0,0 57.6,407.1 4.5,397 -174,-32.8 -398.8,22.7 -398.8,22.7 H 19499"
         style="fill:#323657;fill-opacity:1;fill-rule:nonzero;stroke:none"
         id="path276" /><path
         d="m 19451,8373.5 c 0,0 65.8,-49.4 285.5,47.5 0,0 -21.9,119.6 21.3,260.4 43.1,140.7 -283.4,-146.7 -283.4,-146.7 3.5,-2.5 4.2,-16.6 2.2,-36.2 -0.2,-1.3 -0.3,-2.5 -0.5,-3.8 -1.6,-14.2 -4.5,-30.9 -8.8,-48 -0.5,-2.1 -1,-4.2 -1.6,-6.4 -12.3,-47 -14.7,-25.7 -14.7,-66.8"
         style="fill:#eea886;fill-opacity:1;fill-rule:nonzero;stroke:none"
         id="path278" /><path
         d="m 19467.3,8446.7 v 0 c 157.5,-20.2 243.4,149.4 245.9,154.4 -107.8,-157.1 -237,-106.1 -237,-106.1 v 0 c -1.6,-14.2 -4.6,-31.2 -8.9,-48.3"
         style="fill:#a77860;fill-opacity:1;fill-rule:nonzero;stroke:none"
         id="path280" /><path
         d="m 19452,8412.9 c 0,0 -50.4,-74.9 19.8,-87.6 70.2,-12.8 213.4,2.8 291.5,97.8 0,0 -205.7,39.5 -311.3,-10.2"
         style="fill:#eea886;fill-opacity:1;fill-rule:nonzero;stroke:none"
         id="path282" /><path
         d="m 19814.1,8019.8 c -22.3,46 34.1,166 129.6,249.9 75.6,66.3 156.2,107.5 195.6,122.3 39.3,14.7 308,101.3 321,134.9 16.4,42.6 87.8,251.6 93.6,269.9 11.5,36.5 145.6,450.1 145.6,450.1 l 167.1,-38.3 c 0,0 -124.6,-598 -140.1,-674.7 -10.2,-50.5 -18.8,-139.7 -131.3,-211.5 -114.4,-72.9 -365,-258.1 -390.2,-267.9 -25.2,-9.7 -291.6,-239.7 -390.9,-34.7"
         style="fill:#323657;fill-opacity:1;fill-rule:nonzero;stroke:none"
         id="path284" /><path
         d="m 23445.8,1925.2 c 0,0 -44.6,-13.8 -93.2,-49.3 -48.6,-35.5 -114,-93.5 -185.8,-106.5 -71.8,-13 -147.8,-11.9 -136.2,-88.8 11.7,-76.9 248.1,-114.8 461.3,-49.7 213.3,65.1 216.4,71 216.4,90 0,18.9 -32.2,209.4 -42,215.9 -9.7,6.5 -220.5,-11.6 -220.5,-11.6"
         style="fill:#4b5182;fill-opacity:1;fill-rule:nonzero;stroke:none"
         id="path286" /><path
         d="m 24688.1,1996.1 c 0,0 -82.1,-85 -152.9,-99.3 -70.8,-14.3 -163.6,-37.3 -168.4,-83.7 -4.7,-46.5 24.8,-58.6 27.5,-61.4 17.7,-13.6 355.3,-25.9 485.9,23.3 80.1,30.3 -12.2,281.2 -12.2,281.2 l -179.9,-60.1"
         style="fill:#4b5182;fill-opacity:1;fill-rule:nonzero;stroke:none"
         id="path288" /><path
         d="m 23953.9,5647.7 c 0,0 -241.5,-269.1 -233.5,-189.5 4.8,47.9 -17.6,130.9 -36.1,189.5 -12.3,38.8 -22.9,66.8 -22.9,66.8 v 0 c 2,3.8 262.8,373.8 253.3,258.1 -9.5,-116.4 39.2,-324.9 39.2,-324.9"
         style="fill:#eea987;fill-opacity:1;fill-rule:nonzero;stroke:none"
         id="path290" /><path
         d="m 23864.7,3619.5 c 0,0 -106.1,-369.7 -88.2,-435.3 17.9,-65.7 200.3,-304.9 225,-340.9 33.3,-48.2 561.8,-877.8 567.8,-891.7 5.9,-13.9 304.6,57.9 316.5,121.6 0,0 -418.6,859.2 -518,972.6 -99.5,113.5 -122.6,231.1 -106.7,362.5 16,131.3 210.1,556.9 180.3,732 -29.9,175.1 -558.8,-336 -576.7,-520.8"
         style="fill:#f2c344;fill-opacity:1;fill-rule:nonzero;stroke:none"
         id="path292" /><path
         d="m 23668,4111.7 c 0,0 -712.8,-540.1 -792.6,-650.5 -79.8,-110.4 9.7,-274.6 21.6,-328.3 12,-53.7 492.6,-1117.1 498.5,-1209.6 0,0 322.5,-26.9 379.2,44.7 0,0 -350.8,1009.4 -401.6,1182.5 -50.7,173.1 123.8,215.2 264.1,277.9 140.3,62.6 756,423.9 791.8,559.9 32.8,124.1 0.4,217.6 0.4,217.6 0,0 -172.5,111.5 -761.4,-94.2"
         style="fill:#f2c344;fill-opacity:1;fill-rule:nonzero;stroke:none"
         id="path294" /><path
         d="m 23629.9,5204.2 c 0,0 -478.1,167 -469.8,270.8 8.3,103.8 427.9,616.2 427.9,616.2 l 142,-92.4 -204.2,-535 362.2,-136.4 -258.1,-123.2"
         style="fill:#22243b;fill-opacity:1;fill-rule:nonzero;stroke:none"
         id="path296" /><path
         d="m 23981.7,5662.5 c 0,0 -54.9,111.8 -55.9,135.7 0,0 -240.6,-189.4 -264.4,-234.2 0,0 12.7,-82.6 3.8,-123.4 l 316.5,221.9"
         style="fill:#323657;fill-opacity:1;fill-rule:nonzero;stroke:none"
         id="path298" /><path
         d="m 23981.7,5662.5 c 0,0 -47.7,23.9 -121.4,-23.9 -73.6,-47.7 -326.6,-301.1 -372.3,-317 0,0 108.9,-474.2 114.8,-599.5 6,-125.4 88.1,-781.3 40.3,-864.9 0,0 183.5,50.1 409.9,125 235.9,77.9 454.6,210.2 454.6,210.2 0,0 -161.1,394.3 -177.3,521.1 -17,132.2 -148.6,789 -348.6,949"
         style="fill:#323657;fill-opacity:1;fill-rule:nonzero;stroke:none"
         id="path300" /><path
         d="m 23370,5969 c 0,0 -39.4,40.7 -45.4,135.7 -6.5,103.4 -2.9,66.8 -2.9,66.8 L 23370,5969"
         style="fill:#eea987;fill-opacity:1;fill-rule:nonzero;stroke:none"
         id="path302" /><path
         d="m 23626.3,6016.2 c 0,0 -117.4,60.2 -175.9,60.2 -62.2,-0.1 -125.3,-43.1 -125.3,-43.1 0,0 -26.5,95.3 -4,133.2 22.5,37.9 305.2,-150.3 305.2,-150.3"
         style="fill:#5c5c5c;fill-opacity:1;fill-rule:nonzero;stroke:none"
         id="path304" /><path
         d="m 23830.7,5901.1 c 0,0 -30.3,-171.6 -146.1,-253.2 -0.1,-0.1 -0.2,-0.1 -0.3,-0.2 -12.3,38.8 -22.9,66.8 -22.9,66.8 v 0 c 1.8,1 118.2,65.4 169.3,186.6"
         style="fill:#a87860;fill-opacity:1;fill-rule:nonzero;stroke:none"
         id="path306" /><path
         d="m 23541.1,6233.2 c 0,0 -78.6,-233.6 -86.4,-287.8 -7.9,-54.1 -168.9,50.6 -168.9,50.6 0,0 73.2,198.4 89.2,295.1 16.1,96.6 166.1,-57.9 166.1,-57.9"
         style="fill:#efaa88;fill-opacity:1;fill-rule:nonzero;stroke:none"
         id="path308" /><path
         d="m 24049.9,5334.1 c -12.4,66.5 -83.6,136.7 -151.2,140.6 -148.4,8.6 -483.8,9.5 -494.7,28.6 -13.8,24.3 149,676.1 149,676.1 0,0 -137,55.9 -222.3,63.7 0,0 -366.1,-967.1 -322.7,-996.2 157.8,-106 861,-132.6 861,-132.6 0,0 148.2,34.7 176.3,133.7 9.1,32.2 9.3,61 4.6,86.1"
         style="fill:#323657;fill-opacity:1;fill-rule:nonzero;stroke:none"
         id="path310" /><path
         d="m 23478.6,6578.8 c 0,0 -20.6,-17.5 -25.9,-29.6 0,0 -7.9,-22.7 -14.5,-38.4 -2.1,-5 -4.1,-9.4 -5.6,-12 -6.5,-11.1 -24,-33.5 -32.1,-64.5 -8.1,-31 -25.5,-143.2 -25.5,-143.2 l 93.1,-31.8 73,-26.1 c 0,0 137.2,111.6 148,139.5 1.1,2.8 2,5.5 2.7,8.2 6.9,24.6 1.7,45.8 3.8,59.1 0.8,4.9 5.1,54 -5.4,64.4 -14.6,14.4 -30.5,18.4 -44.3,15.5 0,0 -29.7,26.9 -56.7,28.2 0,0 -26.7,25.7 -60.7,17.8 0,0 -30,23 -49.9,12.9"
         style="fill:#efaa88;fill-opacity:1;fill-rule:nonzero;stroke:none"
         id="path312" /><path
         d="m 23355.5,6186.9 c 0,0 -30.1,-145.7 9.3,-155.2 32.5,-7.8 9.3,-149 7.4,-171.5 -1.8,-22.5 60.6,-19.7 76.9,-28.9 16.2,-9.3 100.5,-157.6 149.8,-148.1 49.3,9.5 242.3,149.1 282.7,227.7 40.4,78.7 5.9,368.7 -68.1,473.2 -74,104.6 -404.3,57.8 -458,-197.2"
         style="fill:#eea886;fill-opacity:1;fill-rule:nonzero;stroke:none"
         id="path314" /><path
         d="m 23348.9,6165.4 c 0,0 -50.7,36.1 -20.1,201.2 35.3,190.3 386.6,81.6 414.7,82.7 28.1,1.1 207.5,17.7 195.8,-244.8 -12.5,-281.9 -25.7,-276.6 -25.7,-276.6 0,0 -60.6,149.7 -110.9,146.5 -54.6,-3.4 -142.3,-17.2 -142.3,-17.2 0,0 9,130.8 -65.1,126.7 -74.2,-4.1 -184.2,28.4 -246.4,-18.5"
         style="fill:#323657;fill-opacity:1;fill-rule:nonzero;stroke:none"
         id="path316" /><path
         d="m 23692.8,6049.2 c -0.7,14.8 -3.3,81.1 47.7,86.3 50.9,5.2 57.4,-75.4 33.3,-130.9 -24.1,-55.4 -77.3,-37.9 -81,44.6"
         style="fill:#eea886;fill-opacity:1;fill-rule:nonzero;stroke:none"
         id="path318" /><path
         d="m 4815.88,7052.3 h 1001.85 v -879.1 l -152.95,153 h -848.9 v 726.1"
         style="fill:#ffce55;fill-opacity:1;fill-rule:nonzero;stroke:none"
         id="path320" /><path
         d="M 7038.42,2033.4 6837,3373 l 38.79,6 201.42,-1339.6 -38.79,-6"
         style="fill:#5c5049;fill-opacity:1;fill-rule:nonzero;stroke:none"
         id="path322" /><path
         d="m 6792.46,2033.4 -201.43,1339.6 38.8,6 201.42,-1339.6 -38.79,-6"
         style="fill:#5c5049;fill-opacity:1;fill-rule:nonzero;stroke:none"
         id="path324" /><path
         d="m 5580.94,2033.4 -38.79,6 201.42,1339.6 38.79,-6 -201.42,-1339.6"
         style="fill:#5c5049;fill-opacity:1;fill-rule:nonzero;stroke:none"
         id="path326" /><path
         d="m 6900.02,3359.4 157.8,1660 c 0,0 -275.97,36.1 -442.74,27.2 L 6364.47,3359.4 h 535.55"
         style="fill:#fab46c;fill-opacity:1;fill-rule:nonzero;stroke:none"
         id="path328" /><path
         d="m 6900.02,3443.7 h -535.55 v -84.3 h 535.55 v 84.3"
         style="fill:#fab46c;fill-opacity:1;fill-rule:nonzero;stroke:none"
         id="path330" /><path
         d="m 6014.1,3427 -83.7,1582 c 0,0 698.41,75.8 1127.42,10.4 L 6014.1,3427"
         style="fill:#fab46c;fill-opacity:1;fill-rule:nonzero;stroke:none"
         id="path332" /><path
         d="m 6571.83,5521.2 c 0,0 107.84,316.3 -97.96,414.3 -205.8,98.1 -380.54,-43.7 -413.54,-120.4 -33.01,-76.6 -24.28,-216.1 3.87,-313.4 28.16,-97.2 24.06,-245.2 -37.11,-294.8 -61.15,-49.5 -136.99,-131.7 -133.23,-299.1 2.34,-103.8 408.62,265.7 408.62,265.7 l 269.35,347.7"
         style="fill:#fccca2;fill-opacity:1;fill-rule:nonzero;stroke:none"
         id="path334" /><path
         d="m 6297.22,2117.9 c 0,0 -6.4,-223.5 25.51,-236.9 31.91,-13.5 152.71,64.2 206,141.1 53.27,76.9 -66.77,255.8 -86.47,354.4 -8.24,41.4 -102.11,115.7 -147.88,94.4 -45.77,-21.3 -79.18,-75.9 -79.18,-75.9 0,0 116.46,-79.8 82.02,-277.1"
         style="fill:#d4c3bd;fill-opacity:1;fill-rule:nonzero;stroke:none"
         id="path336" /><path
         d="m 6215.2,2395 c 0,0 39.64,-76.2 60.01,-135.4 20.38,-59.2 24.19,-223.1 37.03,-234.5 12.84,-11.3 114.06,39.7 127.57,101 13.52,61.3 -27.53,183.8 -66.61,248.2 -39.07,64.4 -78.82,96.6 -78.82,96.6 0,0 -69,-13.4 -79.18,-75.9"
         style="fill:#de9673;fill-opacity:1;fill-rule:nonzero;stroke:none"
         id="path338" /><path
         d="m 6442.26,2376.5 108.77,-158.7 -20.6,-14.1 -84.07,122.7 -4.1,50.1"
         style="fill:#d4c3bd;fill-opacity:1;fill-rule:nonzero;stroke:none"
         id="path340" /><path
         d="m 6050.72,4131.8 c 0,0 53.19,-89.8 0,-155.2 -53.19,-65.4 -410.8,-245.1 -408.19,-348.8 2.62,-103.8 68.13,-266.2 91.67,-307.4 23.55,-41.2 110.39,-212.1 155.51,-312.2 45.13,-100 306.05,-578.7 357.05,-686.6 51.01,-107.9 19.61,431.6 19.61,431.6 l -260.91,765.1 609.62,593.9 c 0,0 -73.78,164.2 -564.36,19.6"
         style="fill:#de9673;fill-opacity:1;fill-rule:nonzero;stroke:none"
         id="path342" /><path
         d="m 6282.66,5145 c 0,0 -169.16,-37.5 -236.3,-76.8 -67.14,-39.2 -216.24,-219.7 -216.24,-297.3 0,-77.6 652.05,-150.1 652.05,-150.1 l 123.6,-451.2 c 0,0 329.57,80.4 368.81,147.1 39.23,66.7 -129.78,541.5 -153.32,641.5 -23.54,100.1 -146.83,167.5 -284.16,186.8 -137.32,19.2 -254.44,0 -254.44,0"
         style="fill:#ffd255;fill-opacity:1;fill-rule:nonzero;stroke:none"
         id="path344" /><path
         d="m 6682.45,4116.9 c 0,0 -11.78,-77.1 19.62,-109.8 31.38,-32.7 175.96,-223.4 99.39,-410.7 -70.29,-172 -206.65,-168.7 -206.65,-168.7 H 6383.8 c 0,0 61.26,-309.6 41.48,-513.7 -19.79,-204 -112.85,-669.9 -114.82,-693.4 -1.96,-23.6 -89.21,-97.1 -114.7,-59.9 0,0 -2.37,280.6 -16.11,386.5 -13.73,105.9 -72.17,529.7 -89.83,592.5 -17.66,62.7 -121.63,253 -121.63,272.6 0,19.7 -101.55,326.8 120.13,405.3 221.68,78.4 300.02,297.7 594.13,299.3"
         style="fill:#eea886;fill-opacity:1;fill-rule:nonzero;stroke:none"
         id="path346" /><path
         d="m 6090.7,1944.4 c 0,0 -145.53,-169.8 -129.17,-200.3 16.36,-30.5 159.15,-46.1 248.91,-19.8 89.76,26.2 108.92,240.8 155.68,329.9 19.57,37.3 -6.66,154.2 -55.66,166.4 -48.98,12.2 -109.27,-9.2 -109.27,-9.2 0,0 40.37,-135.3 -110.49,-267"
         style="fill:#e6d3cc;fill-opacity:1;fill-rule:nonzero;stroke:none"
         id="path348" /><path
         d="m 6201.19,2211.4 c 0,0 -17.14,-84.2 -38.52,-143.1 -21.39,-58.8 -121.47,-188.6 -118.64,-205.5 2.83,-17 113.64,-40.9 162.68,-1.8 49.04,39.2 94.15,160.2 104.27,234.9 10.12,74.6 -0.52,124.7 -0.52,124.7 0,0 -62.09,33 -109.27,-9.2"
         style="fill:#eea886;fill-opacity:1;fill-rule:nonzero;stroke:none"
         id="path350" /><path
         d="m 6366.12,2054.2 -15.27,-191.8 -24.89,2 11.8,148.3 28.36,41.5"
         style="fill:#e6d3cc;fill-opacity:1;fill-rule:nonzero;stroke:none"
         id="path352" /><path
         d="m 6801.46,3596.4 c -66.38,-174.3 -206.65,-168.7 -206.65,-168.7 H 6383.8 c 0,0 -88.01,139.5 -303.55,163.4 -47.77,5.3 -101.82,5 -162.55,-3.8 -0.72,-0.1 -1.46,-0.2 -2.19,-0.4 -286.37,-42.4 -231.08,-147.5 -230.21,-150.2 -23.79,58.1 -48.8,150.5 -42.77,200.2 27.47,226.7 354.99,274.3 408.19,339.7 53.19,65.4 0,155.2 0,155.2 490.58,144.6 564.36,-19.6 564.36,-19.6 21.51,3 76.62,34.7 100.06,34.8 0,0 24.55,-53.6 41.86,-102 15.25,-42.7 116.49,-259.5 44.46,-448.6"
         style="fill:#323657;fill-opacity:1;fill-rule:nonzero;stroke:none"
         id="path354" /><path
         d="m 6597.92,4844.4 72.58,-674.8 h -955.38 l -72.59,674.8 h 955.39"
         style="fill:#ded1c5;fill-opacity:1;fill-rule:nonzero;stroke:none"
         id="path356" /><path
         d="m 6746.53,4230.3 h -159.56 v -60.7 h 159.56 v 60.7"
         style="fill:#ded1c5;fill-opacity:1;fill-rule:nonzero;stroke:none"
         id="path358" /><path
         d="M 8099.48,4077.7 H 5056.7 v 91.9 h 3042.78 v -91.9"
         style="fill:#bc8551;fill-opacity:1;fill-rule:nonzero;stroke:none"
         id="path360" /><path
         d="m 6388.36,5881.6 c 0,0 214.05,-63.4 183.47,-360.4 -30.58,-297 -170.36,-281.8 -183.47,-283.9 -13.1,-2.2 -179.1,-13.1 -231.52,347.2 -52.42,360.4 231.52,297.1 231.52,297.1"
         style="fill:#eea886;fill-opacity:1;fill-rule:nonzero;stroke:none"
         id="path362" /><path
         d="m 6490.38,5291.9 c 0,0 -11.34,-98.4 7.59,-159.5 18.93,-61.2 -249.31,-62.9 -249.16,-12.6 0.17,57.2 27.44,104.9 1.75,202.8 -25.69,97.9 239.82,-30.7 239.82,-30.7"
         style="fill:#eea886;fill-opacity:1;fill-rule:nonzero;stroke:none"
         id="path364" /><path
         d="m 6333.11,5749.1 c 0,0 116.31,-185 238.72,-227.9 0,0 66.84,310.4 -209.23,375.5 -276.07,65 -232.82,-313.6 -212.21,-414.5 0,0 57.49,148.5 182.72,266.9"
         style="fill:#fccca2;fill-opacity:1;fill-rule:nonzero;stroke:none"
         id="path366" /><path
         d="m 6282.31,5279.4 c 0,0 84.69,-88.3 192.99,-9.3 0,0 -8.95,-56.4 -86.85,-63.6 -77.88,-7.3 -106.14,72.9 -106.14,72.9"
         style="fill:#a77860;fill-opacity:1;fill-rule:nonzero;stroke:none"
         id="path368" /><path
         d="m 6177.1,5777 c 0,0 61.23,118.6 164.61,123.9 103.38,5.2 164.87,-84.4 164.87,-84.4 0,0 -40.36,100.9 -164.74,100.9 -124.37,0 -164.74,-140.4 -164.74,-140.4"
         style="fill:#23344a;fill-opacity:1;fill-rule:nonzero;stroke:none"
         id="path370" /><path
         d="m 6525.37,5146.5 c 0,0 -3.8,-205.6 -166.85,-211.7 -163.06,-6.1 -129.12,197.2 -129.12,197.2 0,0 119.27,48.3 295.97,14.5"
         style="fill:#eea886;fill-opacity:1;fill-rule:nonzero;stroke:none"
         id="path372" /><path
         d="m 8031.9,1758.6 h 67.58 V 4077.7 H 8031.9 V 1758.6"
         style="fill:#807066;fill-opacity:1;fill-rule:nonzero;stroke:none"
         id="path374" /><path
         d="m 5056.7,1758.6 h 67.58 V 4077.7 H 5056.7 V 1758.6"
         style="fill:#807066;fill-opacity:1;fill-rule:nonzero;stroke:none"
         id="path376" /><path
         d="m 13615.1,16003.7 c -304.9,88.5 -625,-87.7 -713.5,-392.6 -53.9,-185.7 -11.3,-385 114,-532.9 l 4.7,-5.6 1.1,-7.2 c 15,-102.9 28.8,-255.3 9.3,-396.8 l -0.3,-1.9 c -11.2,-51.4 2.2,-105.2 37.6,-151.4 36.4,-47.4 91.4,-81.2 154.8,-94.9 129.5,-28.1 253.9,36.8 277.2,144.5 l 0.2,1 0.3,0.9 c 31.4,105.3 86.2,220.4 163.1,342.2 l 4.3,6.9 7.5,3.1 c 162.3,67.5 283.4,202.8 332.3,371.2 88.4,305 -87.7,625 -392.6,713.5 z m -426.2,-1627.6 c -65.6,19 -122.4,56.8 -161.6,108 -44.5,58.1 -61.3,126.4 -47.3,192.5 18.1,132 5.8,275 -8.4,374.2 -132.6,160.4 -177.2,374.7 -119.2,574.6 96.3,332.1 444.9,523.9 777,427.6 332.1,-96.4 523.9,-444.9 427.5,-777.1 -52.4,-180.7 -181.3,-326.5 -354.2,-401.1 -71.9,-114.9 -123.3,-223.1 -152.8,-321.7 -29.8,-134.8 -181.2,-216.8 -337.9,-182.8 -7.8,1.6 -15.5,3.6 -23.1,5.8"
         style="fill:#ffd255;fill-opacity:1;fill-rule:nonzero;stroke:none"
         id="path378" /><path
         d="m 13119,14609.3 59.9,685.7 115.3,-144.6 106.5,77.8 55.9,-105.7 153.5,83.1 -219.7,-653.3 -48.6,16.4 178.1,529.7 -84.4,-45.7 -52.4,99.1 -98.4,-71.8 -65.9,82.6 -48.7,-557.8 -51.1,4.5"
         style="fill:#ffd255;fill-opacity:1;fill-rule:nonzero;stroke:none"
         id="path380" /><path
         d="m 13404.2,14209.2 -434.7,94.2 37.9,175.2 434.8,-94.2 -38,-175.2"
         style="fill:#ffd255;fill-opacity:1;fill-rule:nonzero;stroke:none"
         id="path382" /><path
         d="m 13489.8,14266.2 -574.6,124.5 61.1,282 574.6,-124.5 -61.1,-282"
         style="fill:#ffd255;fill-opacity:1;fill-rule:nonzero;stroke:none"
         id="path384" /><path
         d="m 5222.03,9951.5 -31.01,10.6 259.94,756.7 580.8,160.9 199.82,829.6 447.27,203.6 93.26,644.3 32.46,-4.7 -95.83,-662.1 -449.04,-204.4 -200.58,-832.8 -582.76,-161.4 -254.33,-740.3"
         style="fill:#ffd078;fill-opacity:1;fill-rule:nonzero;stroke:none"
         id="path386" /><path
         d="m 6112.5,10922.6 c 30.98,-37.1 26.08,-92.2 -10.95,-123.2 -37.03,-31 -92.17,-26.1 -123.17,10.9 -30.98,37.1 -26.08,92.2 10.95,123.2 37.03,31 92.18,26.1 123.17,-10.9"
         style="fill:#ffffff;fill-opacity:1;fill-rule:nonzero;stroke:none"
         id="path388" /><path
         d="m 5999.85,10920.9 c -30.04,-25.1 -34.02,-70 -8.89,-100 25.14,-30.1 70.03,-34.1 100.07,-8.9 30.04,25.1 34.02,70 8.89,100 -25.14,30.1 -70.03,34.1 -100.07,8.9 z m 112.22,-134.1 c -43.9,-36.7 -109.52,-30.9 -146.25,13 -36.74,43.9 -30.91,109.5 12.99,146.3 43.91,36.7 109.52,30.9 146.25,-13 36.74,-43.9 30.91,-109.5 -12.99,-146.3"
         style="fill:#ffd078;fill-opacity:1;fill-rule:nonzero;stroke:none"
         id="path390" /><path
         d="m 6315.11,11748.8 c 30.99,-37 26.09,-92.2 -10.94,-123.2 -37.04,-31 -92.17,-26.1 -123.17,11 -30.99,37 -26.08,92.1 10.95,123.1 37.03,31 92.17,26.1 123.16,-10.9"
         style="fill:#ffffff;fill-opacity:1;fill-rule:nonzero;stroke:none"
         id="path392" /><path
         d="m 6202.47,11747.2 c -30.04,-25.2 -34.03,-70.1 -8.89,-100.1 25.14,-30 70.03,-34 100.07,-8.9 30.04,25.1 34.02,70 8.88,100.1 -25.13,30 -70.03,34 -100.06,8.9 z m 112.21,-134.1 c -43.89,-36.8 -109.51,-31 -146.25,12.9 -36.74,43.9 -30.91,109.6 13,146.3 43.91,36.7 109.51,30.9 146.25,-13 36.74,-43.9 30.91,-109.5 -13,-146.2"
         style="fill:#ffd078;fill-opacity:1;fill-rule:nonzero;stroke:none"
         id="path394" /><path
         d="m 6755.41,11958 c 30.98,-37.1 26.09,-92.2 -10.94,-123.2 -37.04,-31 -92.18,-26.1 -123.17,11 -30.98,37 -26.09,92.1 10.94,123.1 37.03,31 92.18,26.1 123.17,-10.9"
         style="fill:#ffffff;fill-opacity:1;fill-rule:nonzero;stroke:none"
         id="path396" /><path
         d="m 6642.77,11956.3 c -30.05,-25.1 -34.03,-70 -8.9,-100 25.14,-30.1 70.03,-34.1 100.07,-8.9 30.04,25.1 34.03,70 8.9,100 -25.14,30.1 -70.03,34.1 -100.07,8.9 z m 112.22,-134.1 c -43.91,-36.7 -109.52,-30.9 -146.25,13 -36.75,43.9 -30.92,109.5 12.98,146.3 43.91,36.7 109.52,30.9 146.25,-13 36.75,-43.9 30.92,-109.5 -12.98,-146.3"
         style="fill:#ffd078;fill-opacity:1;fill-rule:nonzero;stroke:none"
         id="path398" /><path
         d="m 5534.06,10754.1 c 30.98,-37.1 26.08,-92.2 -10.95,-123.2 -37.03,-31 -92.17,-26.1 -123.15,11 -31,37 -26.1,92.1 10.93,123.1 37.03,31 92.18,26.1 123.17,-10.9"
         style="fill:#ffffff;fill-opacity:1;fill-rule:nonzero;stroke:none"
         id="path400" /><path
         d="m 5421.42,10752.4 c -30.05,-25.1 -34.03,-70 -8.9,-100 25.14,-30.1 70.03,-34.1 100.07,-8.9 30.04,25.1 34.04,70 8.9,100.1 -25.15,30 -70.03,34 -100.07,8.8 z m 112.22,-134.1 c -43.91,-36.7 -109.52,-30.9 -146.26,13 -36.74,43.9 -30.91,109.5 13,146.3 43.9,36.7 109.51,30.9 146.25,-13 36.74,-43.9 30.91,-109.5 -12.99,-146.3"
         style="fill:#ffd078;fill-opacity:1;fill-rule:nonzero;stroke:none"
         id="path402" /><path
         d="m 22151.9,12043.9 h 1406.9 v 98.6 h -1406.9 v -98.6"
         style="fill:#ffd887;fill-opacity:1;fill-rule:nonzero;stroke:none"
         id="path404" /><path
         d="m 22151.9,11542 h 1406.9 v 414.7 H 22151.9 V 11542"
         style="fill:#ffd887;fill-opacity:1;fill-rule:nonzero;stroke:none"
         id="path406" /><path
         d="m 21491,11340.7 h 830 v 61.9 h -830 v -61.9"
         style="fill:#ffd887;fill-opacity:1;fill-rule:nonzero;stroke:none"
         id="path408" /><path
         d="m 21491,11145.8 h 830 v 167.8 h -830 v -167.8"
         style="fill:#ffd887;fill-opacity:1;fill-rule:nonzero;stroke:none"
         id="path410" /><path
         d="m 23789.8,12674.1 h 61.9 v -1161.7 h -61.9 v 1161.7"
         style="fill:#ffd989;fill-opacity:1;fill-rule:nonzero;stroke:none"
         id="path412" /><path
         d="m 23792.1,8637.8 -1012.7,566.4 348.1,22.9 z"
         style="fill:#d6d6d6;fill-opacity:1;fill-rule:nonzero;stroke:none"
         id="path414" /><path
         d="m 23792.1,8637.8 -311.6,501.2 -261.5,7 z"
         style="fill:#e8e8e8;fill-opacity:1;fill-rule:nonzero;stroke:none"
         id="path416" /><path
         d="m 23012.3,9073.9 -20.3,-127.6 800.1,-308.5 z"
         style="fill:#c2c2c2;fill-opacity:1;fill-rule:nonzero;stroke:none"
         id="path418" /><path
         d="m 8812.93,10738.6 -6.15,0.6 c -117.35,10.4 -232.07,15.2 -341.54,15.7 -43.11,0 -85.34,-0.8 -126.72,-2.4 l -3.09,79.9 c 42.5,1.7 87.13,2.5 130.14,2.5 111.52,0 228.72,-5.4 348.33,-16 l 5.97,-0.6 z m 948.74,-121.1 c -163.33,26.3 -322.64,49.4 -473.54,68.9 l 10.23,79.4 c 151.71,-19.6 311.86,-42.9 476,-69.3 z m -2334.93,-73.3 -34.84,72.1 c 140.52,67.9 295.77,120.8 461.43,156.9 l 17.08,-78.1 c -159.54,-34.9 -308.8,-85.6 -443.67,-150.9 z m 3277.16,-99.6 c -169.2,34.1 -323,63.9 -470.4,91.2 l 14.5,78.6 c 147.8,-27.3 302.1,-57.2 471.7,-91.4 z m 938.7,-197.7 c -157,33.8 -313.4,67.4 -469.2,100.4 l 16.6,78.2 c 155.9,-33 312.3,-66.6 469.4,-100.4 z m 8078.6,-87.2 -6,79.7 c 163.7,12.3 325.8,19.3 482.1,20.9 l 0.8,-80 c -154.5,-1.6 -315,-8.5 -476.9,-20.6 z m 1426.8,-43 c -151.8,23.4 -311,40.6 -473.3,51.1 l 5.1,79.9 c 164.7,-10.7 326.3,-28.2 480.4,-51.9 z m -8565.9,-68.1 c -157.4,31.9 -314.1,64.7 -470.2,97.8 l 16.6,78.3 c 155.9,-33.1 312.3,-65.8 469.6,-97.7 z m 6191.7,-12.1 -14.2,78.7 c 160.8,29.1 320.9,54.2 476.1,74.6 l 10.4,-79.4 c -153.9,-20.1 -312.7,-45 -472.3,-73.9 z M 6738.66,9927.3 6671,9970 c 89.23,141.3 195.03,267.3 314.46,374.6 l 53.46,-59.5 c -113.95,-102.4 -214.98,-222.7 -300.26,-357.8 z m 6788.14,-55.8 c -152.3,25.6 -307.1,53.3 -473.2,84.6 l 14.8,78.6 c 165.6,-31.2 319.9,-58.8 471.7,-84.3 z m 8537,-0.5 c -140.7,57.3 -292.2,107.6 -450.2,149.4 l 20.4,77.3 c 161.3,-42.6 316.1,-94 460,-152.7 z m -4228.2,-33.9 -15.6,78.5 c 114.6,22.7 230.4,47.8 344.1,74.8 41.5,9.8 82.7,19.3 123.5,28.6 l 17.7,-78.1 c -40.6,-9.1 -81.5,-18.6 -122.7,-28.4 -114.7,-27.1 -231.5,-52.5 -347,-75.4 z m -3356.5,-101 c -154.4,17.5 -314.9,38.1 -477.1,61.3 l 11.3,79.1 c 161.4,-23 321.2,-43.5 474.8,-60.9 z m 2403.2,-38 -7.6,79.6 c 158.6,15.1 318.2,34.4 474.4,57.1 l 11.5,-79.2 c -157.5,-22.9 -318.4,-42.3 -478.3,-57.5 z m -1443.6,-36.7 c -156.8,6.3 -318.5,15.9 -480.6,28.7 l 6.3,79.7 c 161,-12.6 321.7,-22.2 477.5,-28.4 z m 481.5,-9.3 -0.2,80 c 160.4,0.3 321.2,4.3 478,11.7 l 3.7,-79.9 c -157.9,-7.5 -319.9,-11.5 -481.5,-11.8 z m 6892.3,-247.3 c -4.1,4.7 -102.8,115.7 -326.3,253.8 l 42,68 c 233.6,-144.2 340,-264 344.4,-269 z m -16390.48,-360.5 -78.97,12.8 c 27.11,166.9 66.79,325.8 117.93,472.3 l 75.53,-26.4 c -49.61,-142.1 -88.13,-296.4 -114.49,-458.7 z m -98.98,-957.1 c -0.98,6.6 -24.15,165.1 -24.15,406.7 0,25.5 0.27,52 0.85,79.3 l 79.98,-1.7 c -0.56,-26.7 -0.83,-52.6 -0.83,-77.6 0,-235.2 23.05,-393.4 23.28,-395 l -79.13,-11.7"
         style="fill:#e0e0e0;fill-opacity:1;fill-rule:nonzero;stroke:none"
         id="path420" /></g></g></svg>
